<?xml  version="1.0" encoding="UTF-8"?>
<!DOCTYPE svg PUBLIC "-//W3C//DTD SVG 1.0//EN" "http://www.w3.org/TR/2001/REC-SVG-20010904/DTD/svg10.dtd" >
<svg xmlns="http://www.w3.org/2000/svg" >
<metadata>
<version>1.0</version>
<id><![CDATA[Grotesque MT W01]]></id>
<vendor>Monotype Imaging Inc.</vendor>
<credits>
<name>Fonts.com WebFonts</name>
<URL>http://webfonts.fonts.com</URL>
<role>Home of the Web fonts</role>
</credits>
<license>
<URL>http://webfonts.fonts.com/Legal</URL>
</license>
<copyright><![CDATA[Copyright 1992, 2002 Adobe Systems Incorporated. All Rights Reserved. Copyright 1992, 2002 The Monotype Corporation. All rights reserved.]]></copyright>
<trademark><![CDATA[Grotesque is a registered trademark of The Monotype Corporation in the United States and/or other countries; Monotype is a trademark of Monotype Imaging, Inc. Registered in U.S. Patent and Trademark Office and may be registered in certain other jurisdictions.]]></trademark>
<licensee>
<name></name>
</licensee>
</metadata>
<defs >
<font horiz-adv-x="455" id="483c1f7d-0832-4465-9402-521ebc3754e3">
<font-face font-family="" panose-1="2 11 5 4 2 2 2 2 2 4" ascent="931" descent="-250" units-per-em="1000" alphabetic="0">
</font-face>
<missing-glyph horiz-adv-x="0" />

<glyph unicode="&#xA;" />
<glyph unicode="&#xD;" />
<glyph unicode=" " horiz-adv-x="240" />
<glyph unicode="!" horiz-adv-x="271" d="M88 724H186L169 207H100L88 724ZM86 126H183V0H86V126Z"  />
<glyph unicode="&quot;" horiz-adv-x="479" d="M80 721H178V601L148 462H110L80 601V721ZM301 721H399V601L369 462H331L301 601V721Z"  />
<glyph unicode="#" horiz-adv-x="668" d="M42 482H198L240 676H310L268 482H464L505 676H575L533 482H626V412H520L484 241H626V171H471L430 -22H359L401 171H204L164 -22H94L134 171H42V241H149L184 412H42V482ZM254 412L219 242H415L450 412H254Z"  />
<glyph unicode="$" horiz-adv-x="594" d="M270 606Q224 601 198 580T171 524Q171 507 176 494T192 469T222 444T270 417V606ZM337 58Q389 65 418 93T448 165Q448 184 443 199T424 229T390 257T337 287V58ZM270 723H337V681Q377 674 410 663T467 630T507 577T527 495H438Q435 520 429 538T410 569T380 590T337 604V389Q370 374 405 355T471 311T520 252T539 173Q539 119 511 76T431 7Q411 -3 392 -7T337 -17V-114H270V-16Q211 -9 175 6T109 52Q97 65 88 77T73 105T63 138T55 183H149Q154 130 183 99T269 60V316Q237 329 204 345T145 382T101 434T84 506Q84 559 109 598T185 661Q204 669 221 673T270 681V723Z"  />
<glyph unicode="%" horiz-adv-x="854" d="M644 339Q674 339 699 325T743 284T772 223T783 146Q783 106 773 72T743 12T699 -27T644 -41Q579 -41 540 11T501 152Q501 194 511 228T540 287T585 325T644 339ZM643 282Q611 282 594 251T576 161Q576 15 641 15Q673 15 690 49T707 147Q707 211 690 246T643 282ZM213 739Q244 739 270 725T314 686T343 626T353 549Q353 507 343 473T315 413T271 373T214 359Q149 359 110 411T71 549Q71 591 81 626T110 686T155 725T213 739ZM213 682Q182 682 165 650T148 557Q148 485 163 451T212 416Q243 416 259 449T276 547Q276 682 213 682ZM590 741H640L266 -42H214L590 741Z"  />
<glyph unicode="&amp;" horiz-adv-x="646" d="M332 618Q309 618 294 601T279 556Q279 543 281 532T287 509T297 481T313 446Q350 470 365 494T381 550Q381 579 367 598T332 618ZM136 193Q136 166 147 142T177 100T222 72T277 61Q311 61 340 75T404 121Q386 147 373 167T348 206T324 246T296 298L269 348Q245 335 222 321T179 288T148 247T136 193ZM631 -5Q599 -12 582 -12Q563 -12 547 -8T515 5T483 29T447 66Q417 36 387 20T331 -4T287 -13T263 -14Q220 -14 183 2T117 47T73 112T56 192Q56 241 76 277T125 339T185 382T241 411Q209 491 209 538Q209 606 243 647T332 689Q357 689 378 679T416 650T441 608T450 554Q450 497 407 445Q392 428 379 417T339 390Q360 351 377 321T408 267T433 225T456 190Q468 209 476 225T489 258T499 292T506 335L569 295Q560 244 544 206T501 131Q529 99 551 85T595 70Q605 70 623 73L631 -5Z"  />
<glyph unicode="&apos;" horiz-adv-x="271" d="M87 721H185V601L155 462H117L87 601V721Z"  />
<glyph unicode="(" horiz-adv-x="375" d="M301 -192Q280 -178 265 -167T237 -146T215 -126T193 -101Q138 -34 106 61T74 283Q74 313 77 346T87 414T104 483T127 549Q154 616 199 663T302 746V656Q285 639 273 626T252 601T236 574T220 541Q168 425 168 275Q168 127 221 9Q229 -9 236 -22T252 -47T272 -72T301 -101V-192Z"  />
<glyph unicode=")" horiz-adv-x="375" d="M74 746Q95 732 110 721T138 700T160 679T182 655Q237 588 269 493T301 271Q301 241 298 208T287 140T271 71T248 5Q221 -62 176 -109T73 -192V-102Q90 -86 102 -73T123 -47T139 -20T155 13Q207 129 207 279Q207 427 154 545Q146 563 139 576T123 601T103 626T74 655V746Z"  />
<glyph unicode="*" horiz-adv-x="479" d="M185 739L238 595L293 738L363 698L259 580L420 608V526L259 555L364 429L292 389L237 540L184 387L113 429L215 555L60 527V607L215 581L115 697L185 739Z"  />
<glyph unicode="+" horiz-adv-x="667" d="M66 364H294V593H371V364H601V287H371V59H294V287H66V364Z"  />
<glyph unicode="&#x2c;" horiz-adv-x="271" d="M88 128H186V-5Q186 -55 165 -95T105 -160L86 -121Q112 -90 119 -63T125 0H88V128Z"  />
<glyph unicode="-" horiz-adv-x="375" d="M50 289H326V207H50V289Z"  />
<glyph unicode="." horiz-adv-x="271" d="M87 128H185V0H87V128Z"  />
<glyph unicode="/" horiz-adv-x="323" d="M221 730H289L103 -170H35L221 730Z"  />
<glyph unicode="0" horiz-adv-x="479" d="M244 620Q184 620 152 548T119 345Q119 207 150 131T239 55Q299 55 329 132T360 358Q360 483 330 551T244 620ZM245 691Q262 691 284 686T329 667T375 629T414 568T443 477T454 351Q454 262 441 200T407 97T361 34T312 0T269 -13T241 -16Q228 -16 207 -12T162 4T114 41T70 105T38 205T26 349Q26 419 39 481T80 590T148 664T245 691Z"  />
<glyph unicode="1" horiz-adv-x="479" d="M89 539Q104 546 121 556T158 582T204 625T260 690H320V0H230V546Q208 528 191 516T158 493T126 474T89 457V539Z"  />
<glyph unicode="2" horiz-adv-x="479" d="M88 365Q64 406 55 435T46 500Q46 543 60 578T101 639T165 678T247 692Q292 692 329 677T394 636T436 573T451 493Q451 442 437 405T398 338T343 284T280 237Q237 207 212 187T170 150T145 120T124 86H443V0H28Q31 52 45 90T82 160T136 218T206 277Q241 305 268 329T315 377T345 427T355 486Q355 549 325 583T241 618Q189 618 158 586T126 499Q126 475 132 455T155 402L88 365Z"  />
<glyph unicode="3" horiz-adv-x="479" d="M65 479Q53 518 53 538Q53 570 68 598T110 648T173 681T250 693Q289 693 322 680T379 643T417 587T431 518Q431 481 419 455T390 412T353 384T318 366Q382 346 417 302T452 192Q452 147 436 110T389 45T318 2T229 -14Q185 -14 149 -1T85 35T43 91T28 161Q28 190 46 250L119 218Q114 201 112 191T110 170Q110 118 143 88T232 57Q286 57 319 93T352 190Q352 244 331 273T281 315T219 331T166 334V405Q187 404 216 405T271 415T317 446T336 510Q336 562 308 590T229 619Q210 619 193 613T162 598T142 575T134 546Q134 533 140 512L65 479Z"  />
<glyph unicode="4" horiz-adv-x="479" d="M277 537L90 234H277V537ZM289 691H365V234H447V159H365V0H277V159H32V274L289 691Z"  />
<glyph unicode="5" horiz-adv-x="479" d="M84 678H405V592H150L137 419Q168 444 196 454T258 465Q299 465 333 449T391 402T429 331T443 239Q443 182 428 135T384 54T316 2T228 -17Q143 -17 94 32T36 171L115 197Q117 179 121 155T136 110T169 75T226 60Q283 60 316 105T349 231Q349 306 319 347T235 388Q199 388 175 369T128 305L57 330L84 678Z"  />
<glyph unicode="6" horiz-adv-x="479" d="M245 55Q295 55 324 100T354 221Q354 299 328 342T253 386Q227 386 205 375T168 343T144 294T135 231Q135 150 164 103T245 55ZM351 520Q324 614 248 614Q209 614 186 593T150 538T134 465T128 387Q158 425 190 441T268 458Q308 458 341 442T398 396T435 326T449 236Q449 118 396 51T248 -17Q171 -17 116 38Q92 61 76 87T50 147T36 224T31 323Q31 692 256 692Q307 692 339 676T391 638T419 589T434 544L351 520Z"  />
<glyph unicode="7" horiz-adv-x="479" d="M38 683H442V609Q429 586 420 569T403 536T388 502T370 460Q335 371 314 305T282 186T266 89T257 0H162Q168 46 173 79T184 141T198 198T217 261Q245 351 280 436T360 604H38V683Z"  />
<glyph unicode="8" horiz-adv-x="479" d="M242 622Q219 622 200 614T167 590T144 554T136 509Q136 461 165 429T238 397Q286 397 315 428T345 510Q345 560 316 591T242 622ZM238 323Q213 323 192 313T154 286T129 244T120 192Q120 128 152 91T240 53Q295 53 328 90T361 190Q361 250 328 286T238 323ZM304 361Q339 353 357 346T392 324Q457 273 457 176Q457 134 441 99T395 39T324 -1T234 -15Q188 -15 150 -1T83 40T39 102T23 181Q23 270 91 323Q109 337 126 345T177 361Q162 367 139 378T95 407T59 453T44 521Q44 558 59 589T101 644T164 680T244 693Q285 693 321 680T383 644T425 590T440 522Q440 483 424 455T386 409T341 379T304 361Z"  />
<glyph unicode="9" horiz-adv-x="479" d="M232 620Q184 620 155 576T126 460Q126 379 154 334T234 289Q283 289 313 333T344 450Q344 487 336 518T312 571T277 607T232 620ZM126 163Q142 107 164 87T227 66Q267 66 289 90T324 147T339 217T344 278Q276 215 206 215Q167 215 135 232T79 282T42 358T29 455Q29 507 44 550T87 624T151 673T234 691Q251 691 274 686T321 668T368 632T409 571T439 480T450 355Q450 296 445 248T429 162T401 93T360 39Q306 -16 215 -16Q167 -16 136 0T85 38T55 86T39 128L126 163Z"  />
<glyph unicode=":" horiz-adv-x="271" d="M86 495H185V367H86V495ZM86 127H185V0H86V127Z"  />
<glyph unicode=";" horiz-adv-x="271" d="M88 497H186V369H88V497ZM88 128H187V17Q187 -71 142 -127Q134 -137 127 -143T105 -160L85 -121Q97 -107 105 -95T117 -70T124 -40T126 0H88V128Z"  />
<glyph unicode="&lt;" horiz-adv-x="667" d="M600 67L66 291V361L600 585V502L170 326L600 150V67Z"  />
<glyph unicode="=" horiz-adv-x="667" d="M66 481H601V404H66V481ZM66 250H601V173H66V250Z"  />
<glyph unicode="&gt;" horiz-adv-x="667" d="M66 585L600 360V291L66 67V150L497 325L66 501V585Z"  />
<glyph unicode="?" horiz-adv-x="531" d="M65 545Q67 572 70 593T81 632T98 664T122 693Q149 720 187 734T270 748Q312 748 348 733T410 692T452 630T467 553Q467 498 438 449T344 344Q326 328 315 316T297 290T288 260T286 220H208Q208 262 213 289T228 335T252 370T285 403Q303 419 318 435T346 470T365 508T372 553Q372 577 364 597T340 633T305 657T262 666Q220 666 197 647T163 602T149 547T146 502L65 545ZM197 125H295V0H197V125Z"  />
<glyph unicode="@" horiz-adv-x="1015" d="M970 9Q968 6 958 -11T927 -53T872 -105T792 -156T682 -194T539 -210Q423 -210 332 -180T177 -93T79 45T45 229Q45 277 55 333T89 444T149 551T239 642T364 705T528 729Q637 729 716 694T846 603T921 483T946 356Q946 275 918 209T848 96T754 24T655 -2Q604 -2 583 16T558 80Q525 42 486 21T410 -1Q371 -1 339 15T282 61T245 131T231 220Q231 272 250 327T304 427T384 500T484 529Q529 529 567 506T632 439L648 515H736L658 153Q653 132 652 125T651 111Q651 97 661 88T686 79Q705 79 736 97T798 151T851 236T873 350Q873 416 847 472T774 570T663 635T523 658Q435 658 361 626T232 538T148 405T117 237Q117 148 145 79T228 -39T361 -112T540 -138Q610 -138 665 -125T763 -90T834 -43T881 9H970ZM321 212Q321 149 351 110T429 71Q458 71 489 90T545 142T587 219T604 315Q604 381 573 419T490 457Q457 457 427 437T373 382T335 303T321 212Z"  />
<glyph unicode="A" horiz-adv-x="854" d="M428 592L284 263H571L428 592ZM384 721H472L787 0H687L610 174H246L169 0H68L384 721Z"  />
<glyph unicode="B" horiz-adv-x="698" d="M200 638V429H356Q508 429 508 538Q508 638 371 638H200ZM200 344V84H366Q447 84 491 116T535 209Q535 275 494 309T374 344H200ZM101 721H388Q438 721 479 709T550 675T596 621T613 553Q613 510 596 481T554 432T506 403T466 387Q518 374 548 358T601 313Q638 269 638 204Q638 159 622 122T577 57T507 15T417 0H101V721Z"  />
<glyph unicode="C" horiz-adv-x="750" d="M682 133Q671 114 653 87T603 35T524 -7T409 -25Q330 -25 274 -3T180 55T120 134T87 217T72 290T69 339Q69 428 93 501T162 627T269 709T407 738Q483 738 534 715T616 661T661 601T679 558L603 493Q596 512 584 539T551 590T497 631T413 648Q360 648 316 627T241 568T192 476T175 357Q175 289 188 241T223 161T270 109T322 79T370 66T407 63Q496 63 561 126Q577 142 588 157T614 204L682 133Z"  />
<glyph unicode="D" horiz-adv-x="802" d="M218 633V89H397Q501 89 559 159T618 356Q618 429 598 487T540 581Q512 608 476 620T389 633H218ZM119 721H388Q463 721 518 702T615 641Q668 590 695 518T723 361Q723 277 701 210T637 97T535 25T400 0H119V721Z"  />
<glyph unicode="E" horiz-adv-x="594" d="M91 721H540L513 636H189V415H486V329H189V86H514L543 0H91V721Z"  />
<glyph unicode="F" horiz-adv-x="594" d="M102 721H552L513 632H201V411H468V322H201V0H102V721Z"  />
<glyph unicode="G" horiz-adv-x="802" d="M719 120Q708 106 701 96T686 78T670 63T652 49Q606 14 550 -5T434 -25Q354 -25 290 0T180 73T109 186T84 335Q84 428 108 503T179 630T292 711T442 739Q484 739 521 729T589 701T647 660T691 610L633 530Q598 585 548 617T437 649Q379 649 333 628T255 568T206 471T189 341Q189 209 254 136T436 63Q475 63 504 71T555 93T592 122T620 151V268H339V357H719V120Z"  />
<glyph unicode="H" horiz-adv-x="750" d="M97 721H196V415H555V721H654V0H555V327H196V0H97V721Z"  />
<glyph unicode="I" horiz-adv-x="323" d="M112 721H211V0H112V721Z"  />
<glyph unicode="J" horiz-adv-x="593" d="M377 721H476V181Q476 85 422 31T271 -24Q225 -24 192 -12T136 18T100 60T79 105T69 146T66 175Q66 210 69 249L166 311Q161 280 158 249T155 203Q155 138 185 102T270 65Q322 65 349 99T377 197V721Z"  />
<glyph unicode="K" horiz-adv-x="698" d="M103 721H202V391L521 721H649L394 459L656 0H548L326 389L202 260V0H103V721Z"  />
<glyph unicode="L" horiz-adv-x="594" d="M100 721H199V86H544V0H100V721Z"  />
<glyph unicode="M" horiz-adv-x="854" d="M607 721H760V0H671V641L476 0H379L183 641V0H94V721H248L428 134L607 721Z"  />
<glyph unicode="N" horiz-adv-x="750" d="M100 721H233L551 159V721H650V0H532L198 588V0H100V721Z"  />
<glyph unicode="O" horiz-adv-x="802" d="M404 650Q348 650 304 630T229 571T181 478T164 354Q164 289 181 236T230 144T304 85T401 63Q455 63 499 84T574 145T622 239T639 364Q639 429 622 481T575 571T501 629T404 650ZM59 361Q59 449 84 518T155 637T264 712T404 738Q480 738 542 711T650 635T719 517T744 363Q744 281 726 220T678 116T611 46T535 4T462 -18T400 -24Q321 -24 258 3T151 80T83 201T59 361Z"  />
<glyph unicode="P" horiz-adv-x="698" d="M203 634V378H308Q347 378 385 380T453 395T503 432T522 504Q522 634 364 634H203ZM105 721H401Q452 721 495 705T568 661T616 592T633 504Q633 456 616 417T565 350T486 307T382 292H204V0H105V721Z"  />
<glyph unicode="Q" horiz-adv-x="802" d="M407 181Q418 172 427 164T446 144T466 117T492 80Q507 86 531 103T579 153T620 237T638 364Q638 428 621 481T573 571T499 628T402 649Q347 649 303 629T229 570T182 477T165 354Q165 316 174 267T209 173T284 96T410 62Q387 96 368 117T322 157L407 181ZM567 -133Q549 -123 536 -114T511 -92T485 -64T454 -21Q452 -22 445 -22T430 -24Q422 -24 415 -24T403 -25Q323 -25 260 1T152 77T83 198T59 358Q59 466 91 538T174 655T284 719T399 738Q475 738 538 711T647 634T718 517T743 366Q743 257 707 174T605 42Q591 32 577 24T537 4Q567 -38 591 -60T644 -97L567 -133Z"  />
<glyph unicode="R" horiz-adv-x="698" d="M189 637V409H378Q446 409 481 438T517 524Q517 637 370 637H189ZM90 721H396Q445 721 486 706T558 665T604 603T621 524Q621 446 583 403T469 339L649 0H543L369 324H189V0H90V721Z"  />
<glyph unicode="S" horiz-adv-x="698" d="M147 235Q157 190 172 163T215 112Q273 63 367 63Q401 63 430 73T481 102T515 144T528 197Q528 223 519 243T488 280T431 310T344 335Q302 345 275 352T228 368T191 389T150 420Q121 450 108 480T95 547Q95 590 114 625T168 686T251 726T359 740Q430 740 476 722T550 679T592 628T613 587L539 518Q534 534 524 556T494 600T440 635T351 650Q279 650 238 623T197 547Q197 521 214 504T258 473T314 452T371 437Q412 428 458 414T544 374T608 308T634 206Q634 154 614 112T556 39T466 -8T349 -25Q273 -25 213 -1T113 70Q105 80 99 89T87 109T76 133T64 166L147 235Z"  />
<glyph unicode="T" horiz-adv-x="698" d="M56 721H642V634H398V0H300V634H56V721Z"  />
<glyph unicode="U" horiz-adv-x="750" d="M551 721H650V232Q650 169 636 126T589 50Q554 14 499 -5T374 -24Q310 -24 259 -8T173 40T119 116T100 217V721H199V226Q199 148 245 108T380 67Q419 67 455 79T513 114Q533 134 542 165T551 247V721Z"  />
<glyph unicode="V" horiz-adv-x="750" d="M63 721H167L380 152L585 721H687L427 0H336L63 721Z"  />
<glyph unicode="W" horiz-adv-x="1073" d="M485 721H587L745 135L918 721H1014L803 0H697L536 593L373 0H268L59 721H156L324 136L485 721Z"  />
<glyph unicode="X" horiz-adv-x="698" d="M49 721H168L343 460L512 721H625L401 373L650 0H532L343 283L163 0H48L286 370L49 721Z"  />
<glyph unicode="Y" horiz-adv-x="698" d="M41 721H152L345 396L547 721H658L395 296V0H296V292L41 721Z"  />
<glyph unicode="Z" horiz-adv-x="646" d="M88 721H595V665L189 87H593V0H51V55L457 634H88V721Z"  />
<glyph unicode="[" horiz-adv-x="375" d="M61 722H314V666H153V-110H314V-166H61V722Z"  />
<glyph unicode="\" horiz-adv-x="323" d="M34 730H102L288 -170H220L34 730Z"  />
<glyph unicode="]" horiz-adv-x="375" d="M61 723H314V-166H61V-110H222V667H61V723Z"  />
<glyph unicode="^" horiz-adv-x="469" d="M116 337H26L199 728H270L443 337H354L234 629L116 337Z"  />
<glyph unicode="_" horiz-adv-x="500" d="M0 -125V-75H500V-125H0Z"  />
<glyph unicode="`" horiz-adv-x="333" d="M218 547H147L35 683H152L218 547Z"  />
<glyph unicode="a" horiz-adv-x="531" d="M365 298Q352 288 343 282T323 271T298 264T263 257Q220 249 198 239T158 209Q133 181 133 145Q133 104 158 79T226 53Q252 53 276 63T321 93Q346 117 355 144T365 218V298ZM64 395Q71 411 82 431T114 468T172 496T267 508Q335 508 372 492T426 454T446 406T449 362L448 120Q448 97 449 84T454 64T465 55T487 53V-4Q467 -10 456 -12T434 -15Q410 -15 396 -6T375 17T366 49T364 82Q353 68 338 52T303 20T256 -5T198 -15Q165 -15 137 -3T89 31T57 82T45 146Q45 175 57 204T90 255Q116 282 155 297T254 318Q281 321 297 323T324 330T344 342T365 361Q365 383 361 398T345 421T316 432T271 436Q214 436 182 418T133 358L64 395Z"  />
<glyph unicode="b" horiz-adv-x="594" d="M323 435Q258 433 222 384T185 247Q185 192 197 155T235 92Q253 75 276 65T323 55Q378 55 408 102T439 235Q439 312 425 354T380 418Q352 435 323 435ZM102 721H186V374Q195 393 206 416T236 458T280 490T344 503Q386 503 419 485T477 434T513 352T526 244Q526 186 513 139T477 59T420 7T347 -12Q308 -12 281 1T235 33T204 73T184 112V0H102V721Z"  />
<glyph unicode="c" horiz-adv-x="531" d="M477 122Q475 108 464 85T430 40T371 2T282 -15Q232 -15 190 4T118 59T71 142T54 250Q54 306 71 353T118 434T191 488T283 508Q332 508 366 492T421 454T454 408T469 368L400 335Q372 437 280 437Q213 437 177 388T141 248Q141 192 152 156T189 94Q209 74 234 63T287 52Q382 52 414 156L477 122Z"  />
<glyph unicode="d" horiz-adv-x="594" d="M275 436Q155 431 155 235Q155 150 186 104T274 57Q298 57 322 67T363 95Q389 119 400 155T411 248Q411 318 391 356T347 412T300 433T275 436ZM411 721H495V0H412V115Q400 94 388 72T359 30T317 -1T254 -14Q211 -14 177 4T118 57T81 139T68 247Q68 304 81 351T119 433T178 486T253 505Q289 505 315 493T359 463T389 421T411 377V721Z"  />
<glyph unicode="e" horiz-adv-x="530" d="M395 286Q392 343 374 374T334 420T293 436T268 439Q209 439 176 400T138 286H395ZM475 127Q468 111 462 100T450 79T438 63T423 47Q359 -15 268 -15Q219 -15 179 4T110 57T65 140T49 246Q49 304 65 352T111 434T181 488T272 507Q317 507 355 490T422 441T466 366T482 272Q482 261 482 248T480 219H136Q139 156 158 123T201 73T246 55T275 52Q311 52 334 64T373 94T396 130T408 160L475 127Z"  />
<glyph unicode="f" horiz-adv-x="323" d="M204 423V0H120V423H22V494H120V620Q120 652 125 673T144 707T180 725T237 731Q250 731 263 730T300 726V656Q284 658 276 658T262 658Q229 658 217 645T204 595V494H302V423H204Z"  />
<glyph unicode="g" horiz-adv-x="594" d="M281 439Q224 439 194 392T163 258Q163 192 173 154T208 89Q238 57 289 57Q350 57 384 103T418 233Q418 329 381 384T281 439ZM417 100Q388 45 351 15T258 -15Q217 -15 183 4T125 57T88 139T74 244Q74 303 87 351T125 433T184 487T261 506Q298 506 324 494T368 463T398 422T419 380V494H501V14Q501 -84 445 -137T285 -190Q243 -190 208 -181T148 -155T109 -115T95 -63Q95 -54 96 -48T103 -30L181 -64Q180 -79 188 -90T210 -107T243 -117T285 -121Q347 -121 382 -94T417 -16V100Z"  />
<glyph unicode="h" horiz-adv-x="594" d="M100 721H184V409Q196 425 211 442T246 474T290 498T343 507Q413 507 453 460T494 329V0H410V319Q410 373 382 404T306 435Q250 435 217 400T184 305V0H100V721Z"  />
<glyph unicode="i" horiz-adv-x="271" d="M94 697H178V589H94V697ZM94 494H178V0H94V494Z"  />
<glyph unicode="j" horiz-adv-x="271" d="M106 698H190V589H106V698ZM106 494H190V-77Q190 -192 71 -192Q63 -192 54 -191T30 -188V-120Q52 -122 67 -121T90 -113T102 -95T106 -62V494Z"  />
<glyph unicode="k" horiz-adv-x="479" d="M76 721H160V284L334 494H427L291 338L453 0H363L234 272L159 185V0H76V721Z"  />
<glyph unicode="l" horiz-adv-x="271" d="M94 721H178V0H94V721Z"  />
<glyph unicode="m" horiz-adv-x="854" d="M761 0H678V319Q678 374 652 405T581 436Q469 436 469 292V0H385V299Q385 371 362 404T288 437Q238 437 207 401T176 307V0H93V494H176V403Q206 457 240 482T321 507Q375 507 407 480T459 399Q469 415 482 434T514 469T557 496T613 507Q645 507 672 495T719 461T750 410T761 346V0Z"  />
<glyph unicode="n" horiz-adv-x="594" d="M495 0H411V318Q411 374 384 404T309 435Q254 435 219 401T184 312V0H100V494H184V406Q253 507 345 507Q378 507 406 495T453 462T484 410T495 343V0Z"  />
<glyph unicode="o" horiz-adv-x="594" d="M294 436Q229 436 192 387T155 244Q155 154 193 106T302 57Q366 57 402 107T439 246Q439 297 428 333T398 392T352 425T294 436ZM295 507Q346 507 388 488T462 436T510 355T527 252Q527 191 511 142T464 58T390 4T294 -15Q244 -15 202 4T130 58T84 141T67 249Q67 306 84 353T131 434T203 488T295 507Z"  />
<glyph unicode="p" horiz-adv-x="594" d="M322 57Q365 57 394 87Q418 111 428 150T439 255Q439 433 322 433Q257 433 221 383T184 243Q184 157 221 107T322 57ZM184 378Q194 400 206 422T238 463T283 492T347 504Q388 504 421 486T478 435T515 354T528 249Q528 189 515 141T477 59T418 6T340 -13Q306 -13 282 -2T241 26T210 66T185 113V-191H101V494H184V378Z"  />
<glyph unicode="q" horiz-adv-x="594" d="M277 58Q342 61 377 108T413 240Q413 314 393 354T348 412T301 434T273 437Q218 437 187 388T155 253Q155 181 170 139T219 75Q244 58 277 58ZM411 118Q394 68 370 42T323 3T282 -12T256 -14Q215 -14 181 5T121 58T83 140T69 244Q69 304 82 352T119 433T177 485T254 504Q293 504 320 490T366 456T394 414T412 375V494H495V-191H411V118Z"  />
<glyph unicode="r" horiz-adv-x="375" d="M172 398Q181 415 192 434T219 469T255 495T303 506Q311 506 319 506T338 504V417Q322 419 313 420T295 421Q240 421 206 386T171 293V0H88V494H172V398Z"  />
<glyph unicode="s" horiz-adv-x="531" d="M127 164Q139 52 269 52Q320 52 354 73T388 126Q388 158 358 177T259 209Q223 216 190 226T131 253T90 297T75 363Q75 395 89 422T128 468T189 497T267 508Q321 508 356 492T414 454T445 410T457 375L398 335Q373 439 265 439Q217 439 185 420T152 371Q152 341 182 323T280 293Q285 292 301 290T339 281T383 265T425 237T457 196T471 139Q471 137 468 113T445 60T382 8T259 -16Q171 -16 116 28Q94 45 83 65T60 124L127 164Z"  />
<glyph unicode="t" horiz-adv-x="323" d="M186 683V494H291V424H186V125Q186 86 195 72T230 57Q239 57 250 59T285 66V-4Q257 -10 240 -12T209 -15Q151 -15 127 5T102 75V424H13V494H102V623L186 683Z"  />
<glyph unicode="u" horiz-adv-x="594" d="M99 494H183V183Q183 58 282 58Q309 58 332 68T373 97T401 139T411 190V494H495V0H409V87Q401 75 389 58T357 24T313 -4T254 -16Q184 -16 142 28T99 146V494Z"  />
<glyph unicode="v" horiz-adv-x="479" d="M39 494H120L242 117L361 494H441L287 0H198L39 494Z"  />
<glyph unicode="w" horiz-adv-x="750" d="M38 494H120L229 95L336 494H414L526 97L632 494H713L564 0H487L374 400L265 0H186L38 494Z"  />
<glyph unicode="x" horiz-adv-x="479" d="M46 494H135L235 334L329 494H416L280 261L442 0H353L236 187L127 0H38L191 260L46 494Z"  />
<glyph unicode="y" horiz-adv-x="479" d="M38 494H117L246 108L361 494H441L282 -19L274 -47Q265 -79 255 -105T229 -150T187 -180T118 -191Q107 -191 94 -190T61 -187V-117Q83 -121 94 -122T116 -123Q136 -123 149 -119T172 -104T191 -70T211 -12L38 494Z"  />
<glyph unicode="z" horiz-adv-x="479" d="M83 494H409V443L163 67H416V0H63V63L300 426H83V494Z"  />
<glyph unicode="{" horiz-adv-x="334" d="M26 317Q63 318 83 333T114 375T125 434T127 506Q127 561 130 605T147 681T193 729T282 746H309V670H294Q268 670 252 666T226 651T214 620T210 569V498Q210 441 204 404T184 343T152 304T108 277Q136 265 155 248T187 204T204 142T210 56V-15Q210 -46 213 -65T226 -96T251 -112T294 -116H309V-192H282Q224 -192 193 -176T148 -128T130 -52T127 48Q127 85 126 119T114 179T84 220T26 237V317Z"  />
<glyph unicode="|" horiz-adv-x="546" d="M234 750H312V-250H234V750Z"  />
<glyph unicode="}" horiz-adv-x="334" d="M52 746Q110 746 141 730T186 682T204 606T207 506Q207 468 208 435T220 375T250 334T308 317V237Q270 236 250 221T220 179T209 119T207 48Q207 -8 204 -52T187 -127T141 -175T52 -192H25V-116H40Q66 -116 82 -112T108 -97T120 -66T124 -15V56Q124 106 129 142T146 204T177 247T226 277Q202 288 184 302T152 340T131 401T124 498V569Q124 600 121 620T108 651T83 666T40 670H25V746H52Z"  />
<glyph unicode="~" horiz-adv-x="656" d="M594 338Q519 274 451 274Q436 274 423 276T393 283T354 298T301 323Q267 339 245 346T206 353Q141 353 62 284V366Q137 429 210 429Q223 429 236 427T266 420T303 406T353 383Q388 366 411 359T452 351Q486 351 518 367T594 421V338Z"  />
<glyph unicode="&#xA0;" horiz-adv-x="240" />
<glyph unicode="&#xA1;" horiz-adv-x="271" d="M87 559H184V432H87V559ZM100 351H169L184 -166H87L100 351Z"  />
<glyph unicode="&#xA2;" horiz-adv-x="531" d="M294 436Q289 437 280 437Q213 437 177 388T141 248Q141 200 149 167T177 110L294 436ZM385 690H461L386 481Q406 469 421 454T445 424T461 393T469 368L400 335Q387 384 360 409L235 63Q260 52 287 52Q382 52 414 156L477 122Q475 108 464 85T430 40T371 2T282 -15Q243 -15 211 -2L142 -194H68L149 31Q104 65 79 121T54 250Q54 306 71 353T118 434T191 488T283 508Q302 508 319 505L385 690Z"  />
<glyph unicode="&#xA3;" horiz-adv-x="646" d="M208 92Q184 107 169 112T138 118Q117 118 102 105T86 74Q86 58 99 47T133 36Q155 36 172 49T208 92ZM202 396Q198 417 196 431T193 457T191 478T190 500Q190 543 204 578T242 640T301 680T376 695Q433 695 475 668T537 592Q545 574 547 559T551 514L455 524Q453 570 431 594T371 619Q331 619 308 590T285 509Q285 498 285 488T288 465T292 436T300 396H449V321H315Q318 298 319 285T320 258Q320 220 315 192T295 134Q328 117 351 106T391 89T423 81T453 78Q491 78 511 98T529 156H612Q610 109 600 80T566 27Q522 -17 445 -17Q392 -17 348 4T258 57Q232 19 202 1T132 -17Q90 -17 63 9T35 75Q35 96 44 115T70 147T108 169T156 177Q186 177 235 161Q237 175 237 183T238 200Q238 228 234 256T218 321H69V396H202Z"  />
<glyph unicode="&#xA4;" horiz-adv-x="667" d="M184 325Q184 294 195 267T227 219T275 187T333 175Q364 175 391 187T439 219T471 267T483 326Q483 357 472 384T440 431T392 463T334 475Q303 475 276 463T228 431T196 384T184 325ZM526 570L577 518L513 455Q533 429 544 396T556 326Q556 253 514 197L577 134L526 82L462 146Q405 103 333 103Q296 103 263 113T203 144L141 82L89 134L151 196Q132 222 122 254T111 325Q111 363 122 396T152 455L89 518L140 570L204 507Q232 527 265 537T334 548Q369 548 401 537T462 506L526 570Z"  />
<glyph unicode="&#xA5;" horiz-adv-x="698" d="M296 333H58V395H259L41 721H151L345 436L547 721H658L432 395H640V333H394V244H640V182H394V0H296V182H58V244H296V333Z"  />
<glyph unicode="&#xA6;" horiz-adv-x="546" d="M234 175H312V-175H234V175ZM234 675H312V325H234V675Z"  />
<glyph unicode="&#xA7;" horiz-adv-x="479" d="M213 411Q165 384 145 358T124 300Q124 273 134 252T164 213T211 178T274 139Q320 168 338 194T357 258Q357 291 332 320T244 390Q231 398 226 401T213 411ZM147 -6Q149 -60 172 -89T241 -118Q276 -118 299 -97T323 -47Q323 -19 298 6T213 66Q124 118 86 165T47 273Q47 311 59 340T89 390T126 425T158 448Q114 477 95 509T75 585Q75 617 88 644T123 691T177 722T244 733Q323 733 366 692T419 575L335 553Q329 665 243 665Q208 665 184 646T160 598Q160 570 184 545T268 484Q313 457 344 433T395 383T424 332T433 275Q433 237 421 209T391 159T355 124T326 103Q370 67 388 35T406 -38Q406 -70 393 -97T357 -143T302 -173T231 -184Q184 -184 146 -163T85 -100Q77 -84 72 -70T61 -27L147 -6Z"  />
<glyph unicode="&#xA8;" horiz-adv-x="333" d="M30 556V656H121V556H30ZM212 556V656H303V556H212Z"  />
<glyph unicode="&#xA9;" horiz-adv-x="738" d="M481 437Q452 512 367 512Q310 512 276 470T242 356Q242 285 275 246T369 206Q412 206 444 231T487 300L547 282Q532 220 485 184T370 148Q279 148 228 205T176 365Q176 411 190 448T230 511T292 551T373 566Q437 566 480 537T539 451L481 437ZM369 728Q445 728 512 699T629 620T708 503T737 360Q737 283 708 216T629 99T512 20T369 -9Q292 -9 225 20T108 99T29 216T0 360Q0 436 29 503T108 620T225 699T369 728ZM369 667Q305 667 249 643T151 577T85 479T61 360Q61 296 85 240T151 142T249 76T369 52Q432 52 488 76T586 142T652 240T676 360Q676 423 652 479T586 577T488 643T369 667Z"  />
<glyph unicode="&#xAA;" horiz-adv-x="333" d="M228 605Q220 599 214 596T201 590T186 585T164 580Q122 572 103 555T83 510Q83 484 99 468T141 452Q158 452 174 459T202 478T221 504T228 534V605ZM39 668Q55 706 84 722T166 738Q281 738 281 660V477Q281 462 285 458T306 452V415Q293 411 286 410T272 408Q249 408 240 422T228 469Q199 434 176 422T121 409Q80 409 54 437T27 511Q27 556 60 583T155 617Q173 619 184 621T202 626T215 633T229 645Q229 670 218 682T171 694Q133 694 114 683T83 644L39 668Z"  />
<glyph unicode="&#xAB;" horiz-adv-x="479" d="M159 521H246L114 278L246 35H159L27 277L159 521ZM365 521H452L320 278L452 35H365L233 277L365 521Z"  />
<glyph unicode="&#xAC;" horiz-adv-x="667" d="M66 481H601V166H524V404H66V481Z"  />
<glyph unicode="&#xAD;" horiz-adv-x="375" d="M50 289H326V207H50V289Z"  />
<glyph unicode="&#xAE;" horiz-adv-x="738" d="M207 156V552H343Q366 552 381 552T409 550T430 546T451 539Q477 528 495 502T513 448Q513 400 482 369T400 333Q422 324 442 303T492 233L540 156H462L427 218Q408 251 394 272T367 304T341 320T309 324H271V156H207ZM271 379H349Q399 379 422 393T445 439Q445 472 423 485T344 498H271V379ZM369 728Q445 728 512 699T629 620T708 503T737 360Q737 283 708 216T629 99T512 20T369 -9Q292 -9 225 20T108 99T29 216T0 360Q0 436 29 503T108 620T225 699T369 728ZM369 667Q305 667 249 643T151 577T85 479T61 360Q61 296 85 240T151 142T249 76T369 52Q432 52 488 76T586 142T652 240T676 360Q676 423 652 479T586 577T488 643T369 667Z"  />
<glyph unicode="&#xAF;" horiz-adv-x="333" d="M14 563V635H319V563H14Z"  />
<glyph unicode="&#xB0;" horiz-adv-x="400" d="M65 593Q65 621 75 645T104 688T147 717T200 728Q228 728 252 718T295 689T324 646T335 593Q335 565 325 540T296 497T253 468T200 457Q172 457 148 467T105 496T76 540T65 593ZM118 593Q118 558 142 534T200 510Q235 510 258 534T282 593Q282 627 259 651T200 675Q165 675 142 651T118 593Z"  />
<glyph unicode="&#xB1;" horiz-adv-x="667" d="M66 447H294V677H371V447H601V370H371V142H294V370H66V447ZM66 53H601V-24H66V53Z"  />
<glyph unicode="&#xB2;" horiz-adv-x="323" d="M58 581Q49 601 46 612T43 638Q43 685 76 715T161 745Q218 745 251 716T285 639Q285 620 281 604T267 573T239 542T194 507Q174 493 161 483T137 463T119 446T103 429H280V378H38Q41 403 49 423T70 461T98 493T131 521Q156 542 172 556T197 584T210 610T218 640Q216 667 201 684T160 701Q133 701 115 685T97 644Q97 630 105 606L58 581Z"  />
<glyph unicode="&#xB3;" horiz-adv-x="323" d="M56 636Q54 647 53 655T51 671Q51 703 81 724T157 746Q210 746 242 721T274 655Q274 627 262 609T219 572Q254 555 270 532T287 477Q287 454 277 435T250 401T209 378T158 369Q132 369 110 376T72 395T46 424T36 461Q36 469 38 479T46 504L97 482Q94 459 100 446T116 426T137 418T156 416Q183 416 201 434T219 480Q219 512 198 529T130 551V596Q212 597 212 648Q212 671 196 685T154 700Q149 700 141 699T125 694T112 680T107 655L56 636Z"  />
<glyph unicode="&#xB4;" horiz-adv-x="333" d="M117 547L182 683H297L190 547H117Z"  />
<glyph unicode="&#xB5;" horiz-adv-x="556" d="M488 509V0H409V61Q382 20 353 4T277 -12Q237 -12 211 2T155 52V-199H68V509H155V266Q155 231 156 206T162 162T174 130T192 104Q207 87 228 77T273 67Q296 67 317 74T353 95Q367 107 376 121T391 154T399 199T401 264V509H488Z"  />
<glyph unicode="&#xB6;" horiz-adv-x="538" d="M197 -199V316Q105 321 52 375T-1 518Q-1 579 27 626T107 698Q122 705 135 709T161 716T191 720T230 721H539V631H469V-199H386V631H280V-199H197Z"  />
<glyph unicode="&#xB7;" horiz-adv-x="271" d="M87 343H184V217H87V343Z"  />
<glyph unicode="&#xB8;" horiz-adv-x="333" d="M66 -179Q80 -180 90 -180T111 -181Q190 -181 190 -144Q190 -132 183 -126T164 -116T139 -113T114 -112L139 -25H205L188 -77Q228 -82 250 -101T272 -151Q272 -192 233 -217T131 -242Q90 -242 60 -236L66 -179Z"  />
<glyph unicode="&#xB9;" horiz-adv-x="323" d="M96 662Q125 680 145 699T183 745H227V378H167V661Q148 644 130 632T96 613V662Z"  />
<glyph unicode="&#xBA;" horiz-adv-x="375" d="M188 693Q144 693 121 663T98 575Q98 454 193 454Q232 454 255 486T278 573Q278 630 254 661T188 693ZM187 738Q219 738 245 726T291 693T322 641T333 576Q333 538 323 508T293 455T248 421T188 409Q122 409 82 455T42 576Q42 612 52 641T82 692T128 726T187 738Z"  />
<glyph unicode="&#xBB;" horiz-adv-x="479" d="M452 277L320 35H233L365 278L233 521H320L452 277ZM246 277L114 35H27L159 278L27 521H114L246 277Z"  />
<glyph unicode="&#xBC;" horiz-adv-x="854" d="M657 147L539 -22H657V147ZM658 242H723V-22H771V-81H723V-170H656V-81H488V1L658 242ZM104 630Q123 642 137 652T164 674T185 697T205 724H257V311H187V623Q168 606 150 597T104 579V630ZM736 724H799L121 -169H56L736 724Z"  />
<glyph unicode="&#xBD;" horiz-adv-x="854" d="M556 56Q545 82 541 97T536 130Q536 181 571 211T664 242Q691 242 713 233T753 208T779 169T789 122Q789 94 779 72T754 31T721 -1T686 -28Q668 -41 657 -50T637 -66T622 -81T607 -99H783V-160H534Q535 -144 537 -127T549 -90T576 -50T626 -5Q651 14 666 28T691 56T706 87T714 127Q711 194 657 194Q631 194 616 178T601 132Q601 122 603 114T610 90L556 56ZM103 633Q138 652 159 671T203 723H254V312H186V624Q140 586 103 582V633ZM733 723H797L123 -169H58L733 723Z"  />
<glyph unicode="&#xBE;" horiz-adv-x="854" d="M74 600Q68 624 68 639Q68 675 100 699T181 723Q235 723 266 696T298 623Q298 591 284 571T235 531Q310 502 310 430Q310 404 300 383T273 345T232 320T179 311Q153 311 131 319T92 342T65 376T55 418Q55 435 65 465L130 439Q127 429 126 424T125 413Q125 389 139 375T179 360Q204 360 218 377T232 425Q232 470 211 487T137 507V555Q165 554 182 559T208 574T221 594T225 615Q225 644 213 659T177 675Q160 675 147 664T134 639Q134 636 134 632T136 623L74 600ZM736 723H799L123 -169H58L736 723ZM657 145L540 -22H657V145ZM658 242H723V-22H771V-81H723V-170H657V-82H488V0L658 242Z"  />
<glyph unicode="&#xBF;" horiz-adv-x="531" d="M236 555H333V430H236V555ZM465 12Q463 -14 460 -35T450 -73T433 -105T409 -134Q354 -191 263 -191Q221 -191 185 -176T122 -135T81 -74T66 3Q66 31 72 56T92 106T128 156T184 209Q203 226 215 239T234 266T243 296T246 335H321Q321 292 317 265T302 218T275 181T234 142Q199 110 180 76T160 6Q160 -18 168 -39T192 -75T227 -100T271 -109Q299 -109 318 -99T350 -74T370 -39T380 -2T383 32T384 55L465 12Z"  />
<glyph unicode="&#xC0;" horiz-adv-x="854" d="M428 592L284 263H571L428 592ZM384 721H472L787 0H687L610 174H246L169 0H68L384 721ZM472 774H401L289 910H406L472 774Z"  />
<glyph unicode="&#xC1;" horiz-adv-x="854" d="M428 592L284 263H571L428 592ZM384 721H472L787 0H687L610 174H246L169 0H68L384 721ZM384 774L449 910H564L457 774H384Z"  />
<glyph unicode="&#xC2;" horiz-adv-x="854" d="M428 592L284 263H571L428 592ZM384 721H472L787 0H687L610 174H246L169 0H68L384 721ZM429 857L374 774H273L379 910H472L582 774H483L429 857Z"  />
<glyph unicode="&#xC3;" horiz-adv-x="854" d="M428 592L284 263H571L428 592ZM384 721H472L787 0H687L610 174H246L169 0H68L384 721ZM264 786Q263 813 271 834T293 869T326 890T365 897Q379 897 398 891T439 874L453 867Q464 862 473 859T492 856Q509 856 516 865T527 898H591Q589 845 565 816T497 787Q465 787 423 810L405 820Q392 827 383 829T365 832Q350 832 339 821T329 786H264Z"  />
<glyph unicode="&#xC4;" horiz-adv-x="854" d="M428 592L284 263H571L428 592ZM384 721H472L787 0H687L610 174H246L169 0H68L384 721ZM291 783V883H382V783H291ZM473 783V883H564V783H473Z"  />
<glyph unicode="&#xC5;" horiz-adv-x="854" d="M428 592L284 263H571L428 592ZM384 721H472L787 0H687L610 174H246L169 0H68L384 721ZM340 844Q340 862 347 878T366 905T394 924T430 931Q448 931 463 924T490 905T509 877T516 842Q516 804 491 778T428 752Q410 752 394 759T366 778T347 808T340 844ZM378 844Q378 821 392 805T429 789Q451 789 466 804T481 842Q481 865 466 880T429 895Q408 895 393 880T378 844Z"  />
<glyph unicode="&#xC6;" horiz-adv-x="1073" d="M494 637L279 261H531V637H494ZM438 721H989L958 637H629V412H932V328H629V83H961L988 0H531V175H231L130 0H23L438 721Z"  />
<glyph unicode="&#xC7;" horiz-adv-x="750" d="M69 339Q69 428 93 501T162 627T269 709T407 738Q483 738 534 715T616 661T661 601T679 558L603 493Q596 512 584 539T551 590T497 631T413 648Q360 648 316 627T241 568T192 476T175 357Q175 289 188 241T223 161T270 109T322 79T370 66T407 63Q496 63 561 126Q577 142 588 157T614 204L682 133Q663 100 651 83T619 49Q542 -21 421 -24L405 -73Q445 -78 467 -97T489 -147Q489 -188 450 -213T348 -238Q307 -238 277 -232L283 -175Q297 -176 307 -176T328 -177Q407 -177 407 -140Q407 -128 400 -122T381 -112T356 -109T331 -108L356 -22Q289 -14 242 11T163 72T113 148T84 226T72 294T69 339Z"  />
<glyph unicode="&#xC8;" horiz-adv-x="594" d="M91 721H540L513 636H189V415H486V329H189V86H514L543 0H91V721ZM349 774H278L166 910H283L349 774Z"  />
<glyph unicode="&#xC9;" horiz-adv-x="594" d="M91 721H540L513 636H189V415H486V329H189V86H514L543 0H91V721ZM248 774L313 910H428L321 774H248Z"  />
<glyph unicode="&#xCA;" horiz-adv-x="594" d="M91 721H540L513 636H189V415H486V329H189V86H514L543 0H91V721ZM309 857L254 774H153L259 910H352L462 774H363L309 857Z"  />
<glyph unicode="&#xCB;" horiz-adv-x="594" d="M91 721H540L513 636H189V415H486V329H189V86H514L543 0H91V721ZM171 783V883H262V783H171ZM353 783V883H444V783H353Z"  />
<glyph unicode="&#xCC;" horiz-adv-x="323" d="M112 721H211V0H112V721ZM206 774H135L23 910H140L206 774Z"  />
<glyph unicode="&#xCD;" horiz-adv-x="323" d="M112 721H211V0H112V721ZM111 774L176 910H291L184 774H111Z"  />
<glyph unicode="&#xCE;" horiz-adv-x="323" d="M112 721H211V0H112V721ZM163 857L108 774H7L113 910H206L316 774H217L163 857Z"  />
<glyph unicode="&#xCF;" horiz-adv-x="323" d="M112 721H211V0H112V721ZM25 783V883H116V783H25ZM207 783V883H298V783H207Z"  />
<glyph unicode="&#xD0;" horiz-adv-x="802" d="M136 721H405Q480 721 535 702T632 641Q685 590 712 518T740 361Q740 277 718 210T654 97T552 25T417 0H136V322H31V398H136V721ZM235 633V398H469V322H235V89H414Q518 89 576 159T635 356Q635 429 615 487T557 581Q529 608 493 620T406 633H235Z"  />
<glyph unicode="&#xD1;" horiz-adv-x="750" d="M100 721H233L551 159V721H650V0H532L198 588V0H100V721ZM222 786Q221 813 229 834T251 869T284 890T323 897Q337 897 356 891T397 874L411 867Q422 862 431 859T450 856Q467 856 474 865T485 898H549Q547 845 523 816T455 787Q423 787 381 810L363 820Q350 827 341 829T323 832Q308 832 297 821T287 786H222Z"  />
<glyph unicode="&#xD2;" horiz-adv-x="802" d="M404 650Q348 650 304 630T229 571T181 478T164 354Q164 289 181 236T230 144T304 85T401 63Q455 63 499 84T574 145T622 239T639 364Q639 429 622 481T575 571T501 629T404 650ZM59 361Q59 449 84 518T155 637T264 712T404 738Q480 738 542 711T650 635T719 517T744 363Q744 281 726 220T678 116T611 46T535 4T462 -18T400 -24Q321 -24 258 3T151 80T83 201T59 361ZM453 774H382L270 910H387L453 774Z"  />
<glyph unicode="&#xD3;" horiz-adv-x="802" d="M404 650Q348 650 304 630T229 571T181 478T164 354Q164 289 181 236T230 144T304 85T401 63Q455 63 499 84T574 145T622 239T639 364Q639 429 622 481T575 571T501 629T404 650ZM59 361Q59 449 84 518T155 637T264 712T404 738Q480 738 542 711T650 635T719 517T744 363Q744 281 726 220T678 116T611 46T535 4T462 -18T400 -24Q321 -24 258 3T151 80T83 201T59 361ZM352 774L417 910H532L425 774H352Z"  />
<glyph unicode="&#xD4;" horiz-adv-x="802" d="M404 650Q348 650 304 630T229 571T181 478T164 354Q164 289 181 236T230 144T304 85T401 63Q455 63 499 84T574 145T622 239T639 364Q639 429 622 481T575 571T501 629T404 650ZM59 361Q59 449 84 518T155 637T264 712T404 738Q480 738 542 711T650 635T719 517T744 363Q744 281 726 220T678 116T611 46T535 4T462 -18T400 -24Q321 -24 258 3T151 80T83 201T59 361ZM403 857L348 774H247L353 910H446L556 774H457L403 857Z"  />
<glyph unicode="&#xD5;" horiz-adv-x="802" d="M404 650Q348 650 304 630T229 571T181 478T164 354Q164 289 181 236T230 144T304 85T401 63Q455 63 499 84T574 145T622 239T639 364Q639 429 622 481T575 571T501 629T404 650ZM59 361Q59 449 84 518T155 637T264 712T404 738Q480 738 542 711T650 635T719 517T744 363Q744 281 726 220T678 116T611 46T535 4T462 -18T400 -24Q321 -24 258 3T151 80T83 201T59 361ZM238 786Q237 813 245 834T267 869T300 890T339 897Q353 897 372 891T413 874L427 867Q438 862 447 859T466 856Q483 856 490 865T501 898H565Q563 845 539 816T471 787Q439 787 397 810L379 820Q366 827 357 829T339 832Q324 832 313 821T303 786H238Z"  />
<glyph unicode="&#xD6;" horiz-adv-x="802" d="M404 650Q348 650 304 630T229 571T181 478T164 354Q164 289 181 236T230 144T304 85T401 63Q455 63 499 84T574 145T622 239T639 364Q639 429 622 481T575 571T501 629T404 650ZM59 361Q59 449 84 518T155 637T264 712T404 738Q480 738 542 711T650 635T719 517T744 363Q744 281 726 220T678 116T611 46T535 4T462 -18T400 -24Q321 -24 258 3T151 80T83 201T59 361ZM265 783V883H356V783H265ZM447 783V883H538V783H447Z"  />
<glyph unicode="&#xD7;" horiz-adv-x="668" d="M86 519L140 573L334 379L528 573L583 519L389 325L581 132L527 78L335 271L141 78L87 132L280 325L86 519Z"  />
<glyph unicode="&#xD8;" horiz-adv-x="802" d="M554 594Q525 621 488 635T405 650Q349 650 305 630T230 571T182 478T165 354Q165 307 174 266T201 191L554 594ZM249 124Q279 95 318 79T402 63Q456 63 500 84T575 145T623 239T640 364Q640 461 603 530L249 124ZM129 109Q60 207 60 361Q60 449 85 518T156 637T265 712T405 738Q531 738 617 667L680 739L739 686L672 609Q707 561 726 499T745 363Q745 281 727 220T679 116T612 46T536 4T463 -18T401 -24Q335 -24 281 -5T184 49L119 -26L58 27L129 109Z"  />
<glyph unicode="&#xD9;" horiz-adv-x="750" d="M551 721H650V232Q650 169 636 126T589 50Q554 14 499 -5T374 -24Q310 -24 259 -8T173 40T119 116T100 217V721H199V226Q199 148 245 108T380 67Q419 67 455 79T513 114Q533 134 542 165T551 247V721ZM427 774H356L244 910H361L427 774Z"  />
<glyph unicode="&#xDA;" horiz-adv-x="750" d="M551 721H650V232Q650 169 636 126T589 50Q554 14 499 -5T374 -24Q310 -24 259 -8T173 40T119 116T100 217V721H199V226Q199 148 245 108T380 67Q419 67 455 79T513 114Q533 134 542 165T551 247V721ZM326 774L391 910H506L399 774H326Z"  />
<glyph unicode="&#xDB;" horiz-adv-x="750" d="M551 721H650V232Q650 169 636 126T589 50Q554 14 499 -5T374 -24Q310 -24 259 -8T173 40T119 116T100 217V721H199V226Q199 148 245 108T380 67Q419 67 455 79T513 114Q533 134 542 165T551 247V721ZM377 857L322 774H221L327 910H420L530 774H431L377 857Z"  />
<glyph unicode="&#xDC;" horiz-adv-x="750" d="M551 721H650V232Q650 169 636 126T589 50Q554 14 499 -5T374 -24Q310 -24 259 -8T173 40T119 116T100 217V721H199V226Q199 148 245 108T380 67Q419 67 455 79T513 114Q533 134 542 165T551 247V721ZM239 783V883H330V783H239ZM421 783V883H512V783H421Z"  />
<glyph unicode="&#xDD;" horiz-adv-x="698" d="M41 721H152L345 396L547 721H658L395 296V0H296V292L41 721ZM300 774L365 910H480L373 774H300Z"  />
<glyph unicode="&#xDE;" horiz-adv-x="698" d="M203 488V233H349Q438 233 480 263T522 358Q522 488 361 488H203ZM203 721V575H396Q448 575 492 560T567 516T615 448T633 361Q633 311 615 272T564 204T483 162T375 147H203V0H105V721H203Z"  />
<glyph unicode="&#xDF;" horiz-adv-x="594" d="M76 545Q76 636 129 685T280 735Q328 735 368 722T436 686T481 631T497 560Q497 445 391 411Q409 403 431 391T472 356T505 297T518 207Q518 157 506 117T472 48T418 4T347 -12Q299 -12 265 11T214 78Q207 98 206 113T204 158H272Q277 58 344 58Q387 58 406 92T425 205Q425 243 420 274T400 329T357 364T281 378V447Q348 449 377 474T406 556Q406 664 282 664Q248 664 225 657T187 633T166 589T159 522V0H76V545Z"  />
<glyph unicode="&#xE0;" horiz-adv-x="531" d="M365 298Q352 288 343 282T323 271T298 264T263 257Q220 249 198 239T158 209Q133 181 133 145Q133 104 158 79T226 53Q252 53 276 63T321 93Q346 117 355 144T365 218V298ZM64 395Q71 411 82 431T114 468T172 496T267 508Q335 508 372 492T426 454T446 406T449 362L448 120Q448 97 449 84T454 64T465 55T487 53V-4Q467 -10 456 -12T434 -15Q410 -15 396 -6T375 17T366 49T364 82Q353 68 338 52T303 20T256 -5T198 -15Q165 -15 137 -3T89 31T57 82T45 146Q45 175 57 204T90 255Q116 282 155 297T254 318Q281 321 297 323T324 330T344 342T365 361Q365 383 361 398T345 421T316 432T271 436Q214 436 182 418T133 358L64 395ZM317 547H246L134 683H251L317 547Z"  />
<glyph unicode="&#xE1;" horiz-adv-x="531" d="M365 298Q352 288 343 282T323 271T298 264T263 257Q220 249 198 239T158 209Q133 181 133 145Q133 104 158 79T226 53Q252 53 276 63T321 93Q346 117 355 144T365 218V298ZM64 395Q71 411 82 431T114 468T172 496T267 508Q335 508 372 492T426 454T446 406T449 362L448 120Q448 97 449 84T454 64T465 55T487 53V-4Q467 -10 456 -12T434 -15Q410 -15 396 -6T375 17T366 49T364 82Q353 68 338 52T303 20T256 -5T198 -15Q165 -15 137 -3T89 31T57 82T45 146Q45 175 57 204T90 255Q116 282 155 297T254 318Q281 321 297 323T324 330T344 342T365 361Q365 383 361 398T345 421T316 432T271 436Q214 436 182 418T133 358L64 395ZM216 547L281 683H396L289 547H216Z"  />
<glyph unicode="&#xE2;" horiz-adv-x="531" d="M365 298Q352 288 343 282T323 271T298 264T263 257Q220 249 198 239T158 209Q133 181 133 145Q133 104 158 79T226 53Q252 53 276 63T321 93Q346 117 355 144T365 218V298ZM64 395Q71 411 82 431T114 468T172 496T267 508Q335 508 372 492T426 454T446 406T449 362L448 120Q448 97 449 84T454 64T465 55T487 53V-4Q467 -10 456 -12T434 -15Q410 -15 396 -6T375 17T366 49T364 82Q353 68 338 52T303 20T256 -5T198 -15Q165 -15 137 -3T89 31T57 82T45 146Q45 175 57 204T90 255Q116 282 155 297T254 318Q281 321 297 323T324 330T344 342T365 361Q365 383 361 398T345 421T316 432T271 436Q214 436 182 418T133 358L64 395ZM267 630L212 547H111L217 683H310L420 547H321L267 630Z"  />
<glyph unicode="&#xE3;" horiz-adv-x="531" d="M365 298Q352 288 343 282T323 271T298 264T263 257Q220 249 198 239T158 209Q133 181 133 145Q133 104 158 79T226 53Q252 53 276 63T321 93Q346 117 355 144T365 218V298ZM64 395Q71 411 82 431T114 468T172 496T267 508Q335 508 372 492T426 454T446 406T449 362L448 120Q448 97 449 84T454 64T465 55T487 53V-4Q467 -10 456 -12T434 -15Q410 -15 396 -6T375 17T366 49T364 82Q353 68 338 52T303 20T256 -5T198 -15Q165 -15 137 -3T89 31T57 82T45 146Q45 175 57 204T90 255Q116 282 155 297T254 318Q281 321 297 323T324 330T344 342T365 361Q365 383 361 398T345 421T316 432T271 436Q214 436 182 418T133 358L64 395ZM102 559Q101 586 109 607T131 642T164 663T203 670Q217 670 236 664T277 647L291 640Q302 635 311 632T330 629Q347 629 354 638T365 671H429Q427 618 403 589T335 560Q303 560 261 583L243 593Q230 600 221 602T203 605Q188 605 177 594T167 559H102Z"  />
<glyph unicode="&#xE4;" horiz-adv-x="531" d="M365 298Q352 288 343 282T323 271T298 264T263 257Q220 249 198 239T158 209Q133 181 133 145Q133 104 158 79T226 53Q252 53 276 63T321 93Q346 117 355 144T365 218V298ZM64 395Q71 411 82 431T114 468T172 496T267 508Q335 508 372 492T426 454T446 406T449 362L448 120Q448 97 449 84T454 64T465 55T487 53V-4Q467 -10 456 -12T434 -15Q410 -15 396 -6T375 17T366 49T364 82Q353 68 338 52T303 20T256 -5T198 -15Q165 -15 137 -3T89 31T57 82T45 146Q45 175 57 204T90 255Q116 282 155 297T254 318Q281 321 297 323T324 330T344 342T365 361Q365 383 361 398T345 421T316 432T271 436Q214 436 182 418T133 358L64 395ZM129 556V656H220V556H129ZM311 556V656H402V556H311Z"  />
<glyph unicode="&#xE5;" horiz-adv-x="531" d="M365 298Q352 288 343 282T323 271T298 264T263 257Q220 249 198 239T158 209Q133 181 133 145Q133 104 158 79T226 53Q252 53 276 63T321 93Q346 117 355 144T365 218V298ZM64 395Q71 411 82 431T114 468T172 496T267 508Q335 508 372 492T426 454T446 406T449 362L448 120Q448 97 449 84T454 64T465 55T487 53V-4Q467 -10 456 -12T434 -15Q410 -15 396 -6T375 17T366 49T364 82Q353 68 338 52T303 20T256 -5T198 -15Q165 -15 137 -3T89 31T57 82T45 146Q45 175 57 204T90 255Q116 282 155 297T254 318Q281 321 297 323T324 330T344 342T365 361Q365 383 361 398T345 421T316 432T271 436Q214 436 182 418T133 358L64 395ZM178 617Q178 635 185 651T204 678T232 697T268 704Q286 704 301 697T328 678T347 650T354 615Q354 577 329 551T266 525Q248 525 232 532T204 551T185 581T178 617ZM216 617Q216 594 230 578T267 562Q289 562 304 577T319 615Q319 638 304 653T267 668Q246 668 231 653T216 617Z"  />
<glyph unicode="&#xE6;" horiz-adv-x="854" d="M715 289Q712 346 694 377T653 423T611 439T587 442Q549 442 520 422T475 366Q471 358 469 351T465 334T462 315T459 289H715ZM372 297Q357 286 347 280T325 269T299 261T264 254Q239 249 217 242T177 222T150 190T140 143Q140 103 165 78T233 53Q259 53 283 63T327 91Q351 114 361 143T372 217V297ZM70 396Q75 411 84 430T116 466T175 496T274 508Q307 508 331 505T375 495T410 475T439 445Q475 479 511 494T593 509Q639 509 677 491T744 440T787 362T803 264Q803 256 803 247T801 222H458Q460 172 471 143T505 90Q522 72 545 63T594 53Q646 53 679 81T726 161L795 128Q788 113 775 89T738 42T678 2T590 -15Q518 -15 473 18T395 118Q383 99 366 76T326 33T274 -1T207 -15Q172 -15 144 -3T95 30T64 80T52 145Q52 209 95 254Q121 280 157 294T253 314Q281 317 298 320T327 327T349 339T372 360Q373 378 370 393T356 418T327 434T278 440Q222 440 189 421T140 360L70 396Z"  />
<glyph unicode="&#xE7;" horiz-adv-x="531" d="M477 122Q475 109 465 87T432 43T376 4T292 -14L277 -59Q317 -64 339 -83T361 -133Q361 -174 322 -199T220 -224Q179 -224 149 -218L155 -161Q169 -162 179 -162T200 -163Q279 -163 279 -126Q279 -114 272 -108T253 -98T228 -95T203 -94L228 -8Q189 1 157 24T102 80T67 157T54 250Q54 306 71 353T118 434T191 488T283 508Q332 508 366 492T421 454T454 408T469 368L400 335Q372 437 280 437Q213 437 177 388T141 248Q141 192 152 156T189 94Q209 74 234 63T287 52Q382 52 414 156L477 122Z"  />
<glyph unicode="&#xE8;" horiz-adv-x="530" d="M395 286Q392 343 374 374T334 420T293 436T268 439Q209 439 176 400T138 286H395ZM475 127Q468 111 462 100T450 79T438 63T423 47Q359 -15 268 -15Q219 -15 179 4T110 57T65 140T49 246Q49 304 65 352T111 434T181 488T272 507Q317 507 355 490T422 441T466 366T482 272Q482 261 482 248T480 219H136Q139 156 158 123T201 73T246 55T275 52Q311 52 334 64T373 94T396 130T408 160L475 127ZM317 547H246L134 683H251L317 547Z"  />
<glyph unicode="&#xE9;" horiz-adv-x="530" d="M395 286Q392 343 374 374T334 420T293 436T268 439Q209 439 176 400T138 286H395ZM475 127Q468 111 462 100T450 79T438 63T423 47Q359 -15 268 -15Q219 -15 179 4T110 57T65 140T49 246Q49 304 65 352T111 434T181 488T272 507Q317 507 355 490T422 441T466 366T482 272Q482 261 482 248T480 219H136Q139 156 158 123T201 73T246 55T275 52Q311 52 334 64T373 94T396 130T408 160L475 127ZM216 547L281 683H396L289 547H216Z"  />
<glyph unicode="&#xEA;" horiz-adv-x="530" d="M395 286Q392 343 374 374T334 420T293 436T268 439Q209 439 176 400T138 286H395ZM475 127Q468 111 462 100T450 79T438 63T423 47Q359 -15 268 -15Q219 -15 179 4T110 57T65 140T49 246Q49 304 65 352T111 434T181 488T272 507Q317 507 355 490T422 441T466 366T482 272Q482 261 482 248T480 219H136Q139 156 158 123T201 73T246 55T275 52Q311 52 334 64T373 94T396 130T408 160L475 127ZM267 630L212 547H111L217 683H310L420 547H321L267 630Z"  />
<glyph unicode="&#xEB;" horiz-adv-x="530" d="M395 286Q392 343 374 374T334 420T293 436T268 439Q209 439 176 400T138 286H395ZM475 127Q468 111 462 100T450 79T438 63T423 47Q359 -15 268 -15Q219 -15 179 4T110 57T65 140T49 246Q49 304 65 352T111 434T181 488T272 507Q317 507 355 490T422 441T466 366T482 272Q482 261 482 248T480 219H136Q139 156 158 123T201 73T246 55T275 52Q311 52 334 64T373 94T396 130T408 160L475 127ZM129 556V656H220V556H129ZM311 556V656H402V556H311Z"  />
<glyph unicode="&#xEC;" horiz-adv-x="271" d="M94 494H178V0H94V494ZM178 547H107L-5 683H112L178 547Z"  />
<glyph unicode="&#xED;" horiz-adv-x="271" d="M94 494H178V0H94V494ZM94 547L159 683H274L167 547H94Z"  />
<glyph unicode="&#xEE;" horiz-adv-x="271" d="M94 494H178V0H94V494ZM137 630L82 547H-19L87 683H180L290 547H191L137 630Z"  />
<glyph unicode="&#xEF;" horiz-adv-x="271" d="M94 494H178V0H94V494ZM-1 556V656H90V556H-1ZM181 556V656H272V556H181Z"  />
<glyph unicode="&#xF0;" horiz-adv-x="594" d="M304 58Q367 58 404 110T441 250Q441 338 403 388T295 438Q228 438 192 389T155 249Q155 158 194 108T304 58ZM147 588L257 636H256Q234 650 216 659T178 676L210 724Q233 719 265 705T332 668L458 722L480 671L381 629Q412 600 441 563Q453 547 468 521T497 457T520 374T529 270Q529 120 454 48Q425 19 383 3T298 -14Q247 -14 205 5T131 59T83 142T66 248Q66 303 83 351T130 434T200 489T288 509Q315 509 341 501T399 472Q395 492 372 526T307 597L169 537L147 588Z"  />
<glyph unicode="&#xF1;" horiz-adv-x="594" d="M495 0H411V318Q411 374 384 404T309 435Q254 435 219 401T184 312V0H100V494H184V406Q253 507 345 507Q378 507 406 495T453 462T484 410T495 343V0ZM134 559Q133 586 141 607T163 642T196 663T235 670Q249 670 268 664T309 647L323 640Q334 635 343 632T362 629Q379 629 386 638T397 671H461Q459 618 435 589T367 560Q335 560 293 583L275 593Q262 600 253 602T235 605Q220 605 209 594T199 559H134Z"  />
<glyph unicode="&#xF2;" horiz-adv-x="594" d="M294 436Q229 436 192 387T155 244Q155 154 193 106T302 57Q366 57 402 107T439 246Q439 297 428 333T398 392T352 425T294 436ZM295 507Q346 507 388 488T462 436T510 355T527 252Q527 191 511 142T464 58T390 4T294 -15Q244 -15 202 4T130 58T84 141T67 249Q67 306 84 353T131 434T203 488T295 507ZM349 547H278L166 683H283L349 547Z"  />
<glyph unicode="&#xF3;" horiz-adv-x="594" d="M294 436Q229 436 192 387T155 244Q155 154 193 106T302 57Q366 57 402 107T439 246Q439 297 428 333T398 392T352 425T294 436ZM295 507Q346 507 388 488T462 436T510 355T527 252Q527 191 511 142T464 58T390 4T294 -15Q244 -15 202 4T130 58T84 141T67 249Q67 306 84 353T131 434T203 488T295 507ZM248 547L313 683H428L321 547H248Z"  />
<glyph unicode="&#xF4;" horiz-adv-x="594" d="M294 436Q229 436 192 387T155 244Q155 154 193 106T302 57Q366 57 402 107T439 246Q439 297 428 333T398 392T352 425T294 436ZM295 507Q346 507 388 488T462 436T510 355T527 252Q527 191 511 142T464 58T390 4T294 -15Q244 -15 202 4T130 58T84 141T67 249Q67 306 84 353T131 434T203 488T295 507ZM299 630L244 547H143L249 683H342L452 547H353L299 630Z"  />
<glyph unicode="&#xF5;" horiz-adv-x="594" d="M294 436Q229 436 192 387T155 244Q155 154 193 106T302 57Q366 57 402 107T439 246Q439 297 428 333T398 392T352 425T294 436ZM295 507Q346 507 388 488T462 436T510 355T527 252Q527 191 511 142T464 58T390 4T294 -15Q244 -15 202 4T130 58T84 141T67 249Q67 306 84 353T131 434T203 488T295 507ZM134 559Q133 586 141 607T163 642T196 663T235 670Q249 670 268 664T309 647L323 640Q334 635 343 632T362 629Q379 629 386 638T397 671H461Q459 618 435 589T367 560Q335 560 293 583L275 593Q262 600 253 602T235 605Q220 605 209 594T199 559H134Z"  />
<glyph unicode="&#xF6;" horiz-adv-x="594" d="M294 436Q229 436 192 387T155 244Q155 154 193 106T302 57Q366 57 402 107T439 246Q439 297 428 333T398 392T352 425T294 436ZM295 507Q346 507 388 488T462 436T510 355T527 252Q527 191 511 142T464 58T390 4T294 -15Q244 -15 202 4T130 58T84 141T67 249Q67 306 84 353T131 434T203 488T295 507ZM161 556V656H252V556H161ZM343 556V656H434V556H343Z"  />
<glyph unicode="&#xF7;" horiz-adv-x="668" d="M284 528Q284 547 298 560T332 574Q352 574 366 560T380 526Q380 506 367 492T333 478Q313 478 299 492T284 528ZM284 125Q284 145 298 159T333 173Q353 173 367 160T381 126Q381 106 367 92T333 77Q313 77 299 91T284 125ZM66 364H602V287H66V364Z"  />
<glyph unicode="&#xF8;" horiz-adv-x="594" d="M387 404Q369 421 346 428T296 436Q231 436 194 387T157 244Q157 218 160 196T170 154L387 404ZM210 91Q245 57 304 57Q368 57 404 107T441 246Q441 303 426 341L210 91ZM112 87Q92 119 81 160T69 249Q69 306 86 353T133 434T205 488T297 507Q338 507 373 495T436 461L492 525L544 477L484 408Q506 377 517 338T529 252Q529 191 513 142T466 58T392 4T296 -15Q216 -15 159 33L104 -30L51 17L112 87Z"  />
<glyph unicode="&#xF9;" horiz-adv-x="594" d="M99 494H183V183Q183 58 282 58Q309 58 332 68T373 97T401 139T411 190V494H495V0H409V87Q401 75 389 58T357 24T313 -4T254 -16Q184 -16 142 28T99 146V494ZM349 547H278L166 683H283L349 547Z"  />
<glyph unicode="&#xFA;" horiz-adv-x="594" d="M99 494H183V183Q183 58 282 58Q309 58 332 68T373 97T401 139T411 190V494H495V0H409V87Q401 75 389 58T357 24T313 -4T254 -16Q184 -16 142 28T99 146V494ZM248 547L313 683H428L321 547H248Z"  />
<glyph unicode="&#xFB;" horiz-adv-x="594" d="M99 494H183V183Q183 58 282 58Q309 58 332 68T373 97T401 139T411 190V494H495V0H409V87Q401 75 389 58T357 24T313 -4T254 -16Q184 -16 142 28T99 146V494ZM299 630L244 547H143L249 683H342L452 547H353L299 630Z"  />
<glyph unicode="&#xFC;" horiz-adv-x="594" d="M99 494H183V183Q183 58 282 58Q309 58 332 68T373 97T401 139T411 190V494H495V0H409V87Q401 75 389 58T357 24T313 -4T254 -16Q184 -16 142 28T99 146V494ZM161 556V656H252V556H161ZM343 556V656H434V556H343Z"  />
<glyph unicode="&#xFD;" horiz-adv-x="479" d="M38 494H117L246 108L361 494H441L282 -19L274 -47Q265 -79 255 -105T229 -150T187 -180T118 -191Q107 -191 94 -190T61 -187V-117Q83 -121 94 -122T116 -123Q136 -123 149 -119T172 -104T191 -70T211 -12L38 494ZM190 547L255 683H370L263 547H190Z"  />
<glyph unicode="&#xFE;" horiz-adv-x="594" d="M326 57Q384 57 414 106T445 250Q445 338 415 385T328 433Q262 433 225 384T188 244Q188 158 225 108T326 57ZM188 374Q197 395 208 418T238 460T284 491T353 504Q393 504 426 486T483 435T519 354T532 250Q532 191 519 143T481 60T422 6T345 -13Q312 -13 288 -2T245 26T214 66T189 113V-191H108V721H188V374Z"  />
<glyph unicode="&#xFF;" horiz-adv-x="479" d="M38 494H117L246 108L361 494H441L282 -19L274 -47Q265 -79 255 -105T229 -150T187 -180T118 -191Q107 -191 94 -190T61 -187V-117Q83 -121 94 -122T116 -123Q136 -123 149 -119T172 -104T191 -70T211 -12L38 494ZM103 556V656H194V556H103ZM285 556V656H376V556H285Z"  />
<glyph unicode="&#x152;" horiz-adv-x="1073" d="M573 638Q541 638 517 638T477 639H443Q360 639 313 626T235 579Q162 503 162 358Q162 214 236 138Q252 121 269 110T309 93T361 84T432 81L524 83L573 85V638ZM430 723L500 721H1023L993 638H672V413H967V329H672V85H995L1025 1H555Q546 1 522 1T471 -1Q443 -2 419 -2T384 -3Q307 -3 245 22T139 93T72 204T48 352Q48 442 74 512T146 630T256 702T395 725L430 723Z"  />
<glyph unicode="&#x153;" horiz-adv-x="853" d="M725 287Q724 358 693 400T607 442Q597 442 577 438T538 417T503 370T488 287H725ZM264 436Q201 436 166 386T130 247Q130 159 166 109T266 58Q327 58 361 109T395 252Q395 337 360 386T264 436ZM804 128Q797 112 784 88T748 41T689 2T601 -15Q565 -15 539 -5T493 20T461 52T439 83Q426 66 410 49T372 18T325 -6T265 -15Q217 -15 176 4T105 58T58 139T41 240Q41 298 57 347T103 432T172 487T261 507Q300 507 329 498T379 474T415 443T441 413Q455 433 464 443T487 465Q541 507 612 507Q654 507 690 489T754 440T797 366T813 276Q813 253 810 219H485Q488 159 504 126T542 77T583 57T613 53Q658 53 689 80T736 161L804 128Z"  />
<glyph unicode="&#x160;" horiz-adv-x="698" d="M147 235Q157 190 172 163T215 112Q273 63 367 63Q401 63 430 73T481 102T515 144T528 197Q528 223 519 243T488 280T431 310T344 335Q302 345 275 352T228 368T191 389T150 420Q121 450 108 480T95 547Q95 590 114 625T168 686T251 726T359 740Q430 740 476 722T550 679T592 628T613 587L539 518Q534 534 524 556T494 600T440 635T351 650Q279 650 238 623T197 547Q197 521 214 504T258 473T314 452T371 437Q412 428 458 414T544 374T608 308T634 206Q634 154 614 112T556 39T466 -8T349 -25Q273 -25 213 -1T113 70Q105 80 99 89T87 109T76 133T64 166L147 235ZM350 827L404 910H504L394 774H300L195 910H295L350 827Z"  />
<glyph unicode="&#x161;" horiz-adv-x="531" d="M127 164Q139 52 269 52Q320 52 354 73T388 126Q388 158 358 177T259 209Q223 216 190 226T131 253T90 297T75 363Q75 395 89 422T128 468T189 497T267 508Q321 508 356 492T414 454T445 410T457 375L398 335Q373 439 265 439Q217 439 185 420T152 371Q152 341 182 323T280 293Q285 292 301 290T339 281T383 265T425 237T457 196T471 139Q471 137 468 113T445 60T382 8T259 -16Q171 -16 116 28Q94 45 83 65T60 124L127 164ZM266 600L320 683H420L310 547H216L111 683H211L266 600Z"  />
<glyph unicode="&#x178;" horiz-adv-x="698" d="M41 721H152L345 396L547 721H658L395 296V0H296V292L41 721ZM213 783V883H304V783H213ZM395 783V883H486V783H395Z"  />
<glyph unicode="&#x17D;" horiz-adv-x="646" d="M88 721H595V665L189 87H593V0H51V55L457 634H88V721ZM324 827L378 910H478L368 774H274L169 910H269L324 827Z"  />
<glyph unicode="&#x17E;" horiz-adv-x="479" d="M83 494H409V443L163 67H416V0H63V63L300 426H83V494ZM240 600L294 683H394L284 547H190L85 683H185L240 600Z"  />
<glyph unicode="&#x192;" horiz-adv-x="323" d="M157 494L187 618Q202 681 244 710T359 739Q370 739 389 738T430 735L411 659Q396 661 384 661T363 662Q279 662 263 590L239 494H325L308 428H224L94 -137H11L142 428H49L67 494H157Z"  />
<glyph unicode="&#x2C6;" horiz-adv-x="333" d="M168 630L113 547H12L118 683H211L321 547H222L168 630Z"  />
<glyph unicode="&#x2DC;" horiz-adv-x="333" d="M3 559Q2 586 10 607T32 642T65 663T104 670Q118 670 137 664T178 647L192 640Q203 635 212 632T231 629Q248 629 255 638T266 671H330Q328 618 304 589T236 560Q204 560 162 583L144 593Q131 600 122 602T104 605Q89 605 78 594T68 559H3Z"  />
<glyph unicode="&#x2013;" horiz-adv-x="500" d="M-5 295H505V206H-5V295Z"  />
<glyph unicode="&#x2014;" horiz-adv-x="1000" d="M-5 295H1004V206H-5V295Z"  />
<glyph unicode="&#x2018;" horiz-adv-x="271" d="M88 563Q88 612 103 650T150 721L178 692Q168 676 162 664T151 639T146 613T144 580H184V453H88V563Z"  />
<glyph unicode="&#x2019;" horiz-adv-x="271" d="M86 721H184V581Q184 549 168 514T124 453L94 484Q103 499 108 510T117 534T122 560T124 594H86V721Z"  />
<glyph unicode="&#x201A;" horiz-adv-x="271" d="M88 128H186V-5Q186 -55 165 -95T105 -160L86 -121Q112 -90 119 -63T125 0H88V128Z"  />
<glyph unicode="&#x201C;" horiz-adv-x="479" d="M80 561Q80 660 142 721L173 694Q162 677 155 665T145 640T140 614T138 581H178V456H80V561ZM302 564Q302 650 367 721L395 695Q378 667 371 643T363 580H399V456H302V564Z"  />
<glyph unicode="&#x201D;" horiz-adv-x="479" d="M80 721H178V602Q178 562 161 524T113 456L84 483Q94 497 100 509T110 534T115 561T117 596H80V721ZM301 721H399V609Q399 523 337 456L308 484Q318 499 324 511T334 536T339 563T342 596H301V721Z"  />
<glyph unicode="&#x201E;" horiz-adv-x="479" d="M82 128H180V-5Q180 -103 100 -160L80 -121Q94 -103 102 -89T114 -62T119 -34T119 0H82V128ZM303 128H400V-5Q400 -55 380 -94T320 -160L301 -121Q315 -102 323 -88T335 -60T339 -32T340 0H303V128Z"  />
<glyph unicode="&#x2020;" horiz-adv-x="479" d="M199 723H285L267 473L456 492V407L266 422L290 -167H186L215 422L23 406V492L216 475L199 723Z"  />
<glyph unicode="&#x2021;" horiz-adv-x="479" d="M197 724H284L264 496L444 513V426L264 445L275 282L264 109L444 126V39L264 58L283 -172H195L214 57L35 39V126L214 109L202 276L215 445L35 426V513L214 496L197 724Z"  />
<glyph unicode="&#x2022;" horiz-adv-x="350" d="M51 350Q51 376 61 398T87 438T126 464T175 474Q200 474 223 465T262 438T289 399T299 350Q299 324 289 302T263 263T223 237T175 227Q149 227 127 236T88 263T61 302T51 350Z"  />
<glyph unicode="&#x2026;" horiz-adv-x="854" d="M93 127H191V0H93V127ZM378 126H476V0H378V126ZM663 126H761V0H663V126Z"  />
<glyph unicode="&#x2030;" horiz-adv-x="1042" d="M198 359Q166 359 140 373T96 411T67 471T56 548Q56 635 94 687T198 739Q229 739 254 725T298 686T327 627T338 550Q338 508 328 473T300 412T255 373T198 359ZM198 416Q228 416 244 449T261 544Q261 682 199 682Q167 682 150 650T133 557Q133 484 149 450T198 416ZM519 -41Q454 -41 415 12T376 153Q376 193 386 227T415 286T460 325T516 339Q547 339 573 325T618 285T647 223T658 145Q658 105 648 71T619 12T575 -27T519 -41ZM516 15Q548 15 565 49T582 146Q582 212 565 247T516 282Q486 282 469 250T451 161Q451 15 516 15ZM846 -41Q814 -41 788 -27T742 12T713 72T703 152Q703 192 713 226T742 286T787 325T843 339Q874 339 900 325T945 285T974 223T985 145Q985 105 975 71T946 12T902 -27T846 -41ZM843 15Q875 15 892 49T910 146Q910 212 893 247T844 282Q813 282 796 250T779 161Q779 15 843 15ZM528 741H578L186 -42H134L528 741Z"  />
<glyph unicode="&#x2039;" horiz-adv-x="323" d="M184 521H271L139 278L271 35H184L52 277L184 521Z"  />
<glyph unicode="&#x203A;" horiz-adv-x="323" d="M271 277L139 35H52L184 278L52 521H139L271 277Z"  />
<glyph unicode="&#x20AC;" horiz-adv-x="563" d="M440 246H187Q196 183 214 146T254 88T295 61T328 55Q355 55 377 65T415 91T444 125T464 161L522 120Q514 103 501 80T466 35T411 -1T329 -16Q266 -16 224 10T155 76T115 161T96 246H18L31 308H90V321Q90 333 90 345T92 368H20L33 430H99Q109 490 129 538T179 620T246 672T328 691Q382 691 417 672T475 626T507 575T520 537L456 510Q451 528 442 547T417 583T380 610T332 621Q272 621 236 569T187 430H495L482 368H182Q182 360 182 353T181 338Q181 330 181 323T182 308H453L440 246Z"  />
<glyph unicode="&#x2122;" horiz-adv-x="1000" d="M248 323V662H119V721H444V662H314V323H248ZM489 323V721H587L687 403L784 721H880V323H819V657L717 323H657L550 662V323H489Z"  />

</font>
</defs>
</svg>
