<?xml  version="1.0" encoding="UTF-8"?>
<!DOCTYPE svg PUBLIC "-//W3C//DTD SVG 1.0//EN" "http://www.w3.org/TR/2001/REC-SVG-20010904/DTD/svg10.dtd" >
<svg xmlns="http://www.w3.org/2000/svg" >
<metadata>
<version>1.0</version>
<id><![CDATA[Grotesque MT W01 Italic]]></id>
<vendor>Monotype Imaging Inc.</vendor>
<credits>
<name>Fonts.com WebFonts</name>
<URL>http://webfonts.fonts.com</URL>
<role>Home of the Web fonts</role>
</credits>
<license>
<URL>http://webfonts.fonts.com/Legal</URL>
</license>
<copyright><![CDATA[Copyright 1992, 2002 Adobe Systems Incorporated. All Rights Reserved. Copyright 1992, 2002 The Monotype Corporation. All rights reserved.]]></copyright>
<trademark><![CDATA[Grotesque is a registered trademark of The Monotype Corporation in the United States and/or other countries; Monotype is a trademark of Monotype Imaging, Inc. Registered in U.S. Patent and Trademark Office and may be registered in certain other jurisdictions.]]></trademark>
<licensee>
<name></name>
</licensee>
</metadata>
<defs >
<font horiz-adv-x="433" id="519c74d6-1c04-4c5c-8396-47afdca65614">
<font-face font-family="" panose-1="2 11 5 4 2 2 2 9 2 4" ascent="934" descent="-250" units-per-em="1000" alphabetic="0">
</font-face>
<missing-glyph horiz-adv-x="0" />

<glyph unicode="&#xA;" />
<glyph unicode="&#xD;" />
<glyph unicode=" " horiz-adv-x="240" />
<glyph unicode="!" horiz-adv-x="271" d="M197 720H281L130 187H88L197 720ZM52 126H135L104 0H21L52 126Z"  />
<glyph unicode="&quot;" horiz-adv-x="479" d="M275 721L243 594L187 455H161V595L192 721H275ZM479 721L447 594L391 455H365V595L396 721H479Z"  />
<glyph unicode="#" horiz-adv-x="668" d="M42 482H198L240 676H310L268 482H464L505 676H575L533 482H626V412H520L484 241H626V171H471L430 -22H359L401 171H204L164 -22H94L134 171H42V241H149L184 412H42V482ZM254 412L219 242H415L450 412H254Z"  />
<glyph unicode="$" horiz-adv-x="531" d="M403 742L390 688Q417 679 440 668T480 638T507 591T521 522H446Q442 561 425 583T372 617L314 388Q335 377 361 362T410 324T448 270T464 195Q464 133 427 81T328 5Q316 0 305 -3T280 -8T251 -11T214 -12L194 -95H125L147 -5Q114 4 89 17T44 49T11 97T-9 164H71Q79 126 101 103T165 67L231 333Q216 341 194 355T152 391T118 443T103 515Q103 572 132 614T217 678Q240 687 261 690T321 695L332 742H403ZM232 59Q277 62 302 71T350 103Q367 119 375 140T384 183Q384 220 363 247T292 299L232 59ZM303 624Q246 621 214 593T181 520Q181 461 253 423L303 624Z"  />
<glyph unicode="%" horiz-adv-x="854" d="M229 358Q183 358 156 392T128 483Q128 493 131 515T141 567T159 626T189 682T233 723T293 740Q340 740 367 707T395 621Q395 609 392 586T382 533T362 472T332 416T288 375T229 358ZM292 687Q276 687 263 674T240 641T221 597T208 549T199 506T196 478Q196 445 206 430T235 414Q251 414 264 428T288 463T306 511T318 560T325 602T328 626Q328 655 318 671T292 687ZM562 -37Q516 -37 489 -3T461 88Q461 98 464 120T474 172T492 231T522 287T566 328T626 345Q673 345 700 312T728 226Q728 215 725 191T715 138T695 77T665 21T621 -20T562 -37ZM625 292Q609 292 596 279T573 246T554 202T541 154T532 111T529 83Q529 50 539 35T568 19Q585 19 598 33T621 68T639 116T651 165T658 207T661 231Q661 260 651 276T625 292ZM679 739H737L175 -37H118L679 739Z"  />
<glyph unicode="&amp;" horiz-adv-x="594" d="M250 350Q232 342 207 329T158 296T118 248T101 181Q101 155 111 134T138 97T179 72T231 63Q252 63 273 68T312 84Q301 111 293 137T277 193T263 260T250 350ZM20 179Q20 198 27 228T57 293T124 362T242 424Q241 431 241 444T240 472T240 497T240 514Q240 561 252 594T284 649T329 681T383 691Q435 691 468 658T501 572Q501 530 483 499T439 446T382 408T328 383Q336 321 346 261T377 141Q393 164 405 183T425 222T441 263T456 313L514 255Q511 242 506 225T490 185T463 136T421 79Q435 68 445 65T466 61Q476 61 486 63T518 73L539 6Q510 -5 493 -9T456 -13Q427 -13 406 -5T356 23Q322 3 293 -5T224 -13Q179 -13 142 1T77 40T35 101T20 179ZM322 456Q370 475 396 505T422 573Q422 623 381 623Q352 623 336 594T320 510Q320 493 320 481T322 456Z"  />
<glyph unicode="&apos;" horiz-adv-x="271" d="M278 721L246 594L190 455H164V595L195 721H278Z"  />
<glyph unicode="(" horiz-adv-x="375" d="M142 -184Q117 -135 101 -89T76 -1T64 79T60 152Q60 269 85 361T148 525T229 650T306 742H395Q359 697 315 639T234 509T171 349T145 159Q145 96 152 43T170 -53T193 -128T214 -184H142Z"  />
<glyph unicode=")" horiz-adv-x="375" d="M0 -184Q39 -137 83 -79T164 53T225 214T249 411Q249 463 244 505T230 585T209 661T181 742H253Q265 716 279 684T306 609T327 514T335 396Q335 284 311 196T250 38T170 -86T89 -184H0Z"  />
<glyph unicode="*" horiz-adv-x="479" d="M165 698L235 740L288 595L343 738L413 698L309 581L470 607V526L309 555L414 429L342 389L288 540L233 388L163 429L266 555L110 527V608L264 582L165 698Z"  />
<glyph unicode="+" horiz-adv-x="667" d="M66 364H294V593H371V364H601V287H371V59H294V287H66V364Z"  />
<glyph unicode="&#x2c;" horiz-adv-x="271" d="M65 126H148L109 -30Q101 -62 92 -83T70 -117T40 -136T-1 -144L12 -91Q23 -86 30 -80T44 -64T54 -39T65 0H34L65 126Z"  />
<glyph unicode="-" horiz-adv-x="375" d="M66 287H319L300 207H47L66 287Z"  />
<glyph unicode="." horiz-adv-x="271" d="M64 126H147L116 0H34L64 126Z"  />
<glyph unicode="/" horiz-adv-x="323" d="M221 730H289L103 -170H35L221 730Z"  />
<glyph unicode="0" horiz-adv-x="479" d="M181 -13Q146 -13 118 1T69 43T38 107T27 192Q27 260 42 332T83 468T143 584T216 661Q237 675 262 684T316 694Q353 694 382 679T431 635T462 567T473 480Q473 448 466 399T445 295T407 185T352 86T277 15T181 -13ZM310 625Q278 625 246 596T194 515Q173 465 158 412T131 312T115 228T109 176Q109 120 130 88T186 55Q216 55 245 79T296 145Q317 188 334 242T364 348T384 442T391 505Q391 561 370 593T310 625Z"  />
<glyph unicode="1" horiz-adv-x="479" d="M166 550Q192 560 216 571T264 598T314 636T371 690H431L261 0H173L304 533Q280 519 261 509T224 491T188 479T147 470L166 550Z"  />
<glyph unicode="2" horiz-adv-x="479" d="M134 382Q116 412 108 439T100 500Q100 541 115 576T158 636T223 676T305 690Q386 690 434 647T482 530Q482 480 465 440T420 365T353 300T274 242Q240 219 215 200T171 161T138 124T112 83H364L343 0H17Q23 50 35 88T70 160T129 226T220 297Q258 324 290 349T344 401T379 457T392 521Q392 566 365 592T293 619Q270 619 250 610T214 585T189 548T180 503Q180 479 200 435L134 382Z"  />
<glyph unicode="3" horiz-adv-x="478" d="M131 500Q128 524 128 541Q128 573 142 601T180 649T237 682T308 694Q386 694 430 653T474 540Q474 500 458 466T409 406Q393 393 378 386T334 370Q378 343 397 309T416 223Q416 170 399 127T351 53T277 4T181 -13Q146 -13 118 -2T68 28T36 74T24 133Q24 161 30 200L102 165Q101 157 101 149T100 136Q100 101 122 82T185 62Q249 62 287 105T325 221Q325 337 195 337H173L191 410H219Q296 410 342 444T388 536Q388 576 365 598T300 620Q255 620 231 595T206 524L131 500Z"  />
<glyph unicode="4" horiz-adv-x="479" d="M329 516L97 237H260L329 516ZM386 694H461L349 237H443L424 162H330L287 -13H198L241 162H-1L21 251L386 694Z"  />
<glyph unicode="5" horiz-adv-x="478" d="M170 673H495L474 589H214L160 425Q195 448 219 456T269 465Q304 465 333 452T382 415T414 358T425 283Q425 221 406 167T352 73T271 10T171 -13Q91 -13 47 32T3 160V177L91 195Q88 172 88 160Q88 139 95 121T114 89T143 68T179 60Q209 60 232 73T273 107T302 154T321 204T331 250T334 282Q334 334 311 362T244 390Q206 390 177 367T121 292L54 321L170 673Z"  />
<glyph unicode="6" horiz-adv-x="479" d="M440 528Q433 576 409 600T345 625Q306 625 276 600T224 542T187 473T165 418Q191 438 221 449T278 461Q314 461 343 447T395 407T429 346T441 269Q441 229 427 180T383 88T310 16T205 -13Q120 -13 75 41T29 195Q29 222 34 267T55 367T96 482T163 597Q235 694 344 694Q416 694 454 660T510 560L440 528ZM257 394Q228 394 202 376T155 327T124 255T112 168Q112 116 136 85T202 54Q232 54 259 72T307 120T340 190T353 274Q353 328 327 361T257 394Z"  />
<glyph unicode="7" horiz-adv-x="479" d="M112 671H523L506 598Q465 551 436 516T383 448T338 380T291 298Q269 257 253 225T224 160T199 90T172 0H76Q85 39 96 82T131 179T192 298T292 447Q325 493 354 529T412 596H94L112 671Z"  />
<glyph unicode="8" horiz-adv-x="479" d="M307 625Q257 625 226 587T195 489Q195 451 218 427T279 403Q301 403 320 414T354 445T377 489T386 544Q386 582 365 603T307 625ZM231 335Q203 335 179 321T136 282T106 225T95 155Q95 111 122 83T190 55Q219 55 244 68T287 106T316 162T327 232Q327 278 301 306T231 335ZM340 361Q381 332 398 300T415 220Q415 169 398 126T349 53T274 5T178 -13Q100 -13 54 33T8 157Q8 274 86 339Q95 347 103 353T122 364T144 373T174 383Q140 412 126 440T112 507Q112 546 127 580T170 639T234 679T313 694Q349 694 378 683T428 653T460 606T472 545Q472 473 439 430T340 361Z"  />
<glyph unicode="9" horiz-adv-x="479" d="M294 626Q266 625 244 612T206 577T179 529T162 479T152 433T149 399Q149 346 174 316T245 286Q275 286 301 304T346 353T377 425T389 515Q389 537 384 557T366 592T336 617T294 626ZM111 159Q110 149 109 139T108 122Q108 90 124 72T169 54Q194 54 216 69T256 107T289 156T314 206T330 244T336 260Q318 249 304 241T278 228T253 221T224 218Q189 218 160 232T109 272T75 332T62 408Q62 448 75 497T118 590T192 663T301 693Q382 693 426 637T471 479Q471 426 459 365T425 246T375 138T316 56Q247 -13 159 -13Q88 -13 59 23T28 129L111 159Z"  />
<glyph unicode=":" horiz-adv-x="323" d="M172 494H254L224 368H141L172 494ZM81 125H164L133 0H50L81 125Z"  />
<glyph unicode=";" horiz-adv-x="323" d="M175 494H258L227 369H146L175 494ZM86 126H169L130 -30Q122 -62 113 -83T91 -117T61 -136T20 -144L33 -91Q44 -86 51 -80T65 -64T75 -39T86 0H55L86 126Z"  />
<glyph unicode="&lt;" horiz-adv-x="667" d="M600 67L66 291V361L600 585V502L170 326L600 150V67Z"  />
<glyph unicode="=" horiz-adv-x="667" d="M66 481H601V404H66V481ZM66 250H601V173H66V250Z"  />
<glyph unicode="&gt;" horiz-adv-x="667" d="M66 585L600 360V291L66 67V150L497 325L66 501V585Z"  />
<glyph unicode="?" horiz-adv-x="479" d="M148 568Q150 646 193 692T308 739Q378 739 420 696T463 583Q463 531 440 484T367 387Q361 382 346 369T312 340T278 311T255 291Q241 277 232 267T217 246T205 222T192 187H148Q153 222 161 251T182 306T214 358T262 410L276 424Q299 446 317 465T348 504T367 543T374 590Q374 625 355 647T304 669Q274 669 258 654T235 617T228 574T227 539L148 568ZM116 125H199L167 0H86L116 125Z"  />
<glyph unicode="@" horiz-adv-x="1015" d="M985 9Q983 6 973 -11T942 -53T887 -105T807 -156T697 -194T554 -210Q438 -210 347 -180T192 -93T94 45T60 229Q60 278 70 334T104 446T165 553T256 643T381 705T543 729Q634 729 711 701T843 622T930 501T961 348Q961 280 937 217T871 106T777 28T667 -2Q619 -2 598 16T573 80Q539 41 500 20T423 -2Q385 -2 353 15T297 61T260 131T246 218Q246 277 267 333T324 432T405 502T499 529Q544 529 582 506T647 439L663 515H751L680 187Q678 177 676 165T671 142T668 123T666 111Q666 98 676 89T700 79Q720 79 752 97T814 151T866 237T888 350Q888 416 862 472T789 570T678 635T538 658Q450 658 376 626T247 538T163 405T132 237Q132 148 160 79T243 -39T376 -112T555 -138Q625 -138 680 -125T778 -90T849 -43T896 9H985ZM336 212Q336 150 365 111T441 71Q475 71 507 91T564 146T604 224T619 315Q619 381 588 419T504 457Q472 457 442 437T388 382T350 303T336 212Z"  />
<glyph unicode="A" horiz-adv-x="698" d="M417 583L233 259H462L417 583ZM400 740H487L592 0H498L474 172H184L86 0H-20L400 740Z"  />
<glyph unicode="B" horiz-adv-x="646" d="M264 635L213 427H350Q430 427 476 458T522 544Q522 586 494 610T415 635H264ZM193 342L130 85H344Q407 85 444 121T482 217Q482 274 440 308T329 342H193ZM187 721H419Q513 721 566 679T620 561Q620 522 607 492T570 440T512 403T436 379Q467 369 483 361T518 338Q550 312 566 278T582 205Q582 161 565 124T518 59T445 16T353 0H11L187 721Z"  />
<glyph unicode="C" horiz-adv-x="750" d="M646 124Q629 104 605 78T547 29T465 -9T355 -25Q291 -25 240 -5T152 54T96 147T76 269Q76 316 86 369T118 474T172 575T247 659T346 718T467 740Q528 740 571 726T645 692T695 649T728 609L663 531Q628 592 582 623T467 655Q408 655 364 633T288 576T235 497T202 410T184 329T179 267Q179 170 226 117T358 63Q402 63 439 78T505 116T556 162T592 203L646 124Z"  />
<glyph unicode="D" horiz-adv-x="750" d="M253 632L120 89H328Q389 89 441 113T532 179T591 279T613 406Q613 458 600 499T561 570T501 616T421 632H253ZM177 721H398Q472 721 524 703T612 655T668 589T699 518T712 453T715 405Q715 364 707 318T679 227T629 141T551 69T443 19T301 0H-1L177 721Z"  />
<glyph unicode="E" horiz-adv-x="594" d="M184 721H582L561 634H261L206 413H491L470 326H185L126 87H504L482 0H7L184 721Z"  />
<glyph unicode="F" horiz-adv-x="531" d="M204 721H550L527 634H281L224 408H456L434 321H203L124 0H26L204 721Z"  />
<glyph unicode="G" horiz-adv-x="750" d="M614 78Q588 57 563 39T509 6T442 -16T357 -25Q291 -25 238 -5T146 54T87 147T66 267Q66 306 74 356T101 458T150 560T224 650T328 714T464 738Q510 738 549 728T620 700T677 659T719 608L653 531Q645 544 632 564T595 604T537 638T454 653Q397 653 354 632T279 576T226 498T193 412T175 330T170 265Q170 168 217 116T354 63Q386 63 410 67T455 80T493 100T529 124L566 278H333L351 345H680L614 78Z"  />
<glyph unicode="H" horiz-adv-x="750" d="M196 721H293L217 413H585L661 721H758L581 0H483L563 326H196L116 0H17L196 721Z"  />
<glyph unicode="I" horiz-adv-x="323" d="M213 721H311L132 0H36L213 721Z"  />
<glyph unicode="J" horiz-adv-x="479" d="M388 721H485L351 145Q332 64 285 20T169 -24Q137 -24 110 -14T62 14T30 56T18 109Q18 148 30 201L126 243Q120 217 114 186T108 136Q108 102 123 84T168 65Q204 65 226 91T262 178L388 721Z"  />
<glyph unicode="K" horiz-adv-x="698" d="M203 721H301L220 394L581 721H717L430 461L622 0H512L351 389L181 236L123 0H25L203 721Z"  />
<glyph unicode="L" horiz-adv-x="479" d="M187 721H284L128 86H430L410 0H12L187 721Z"  />
<glyph unicode="M" horiz-adv-x="969" d="M824 721H967L790 0H703L858 629L452 0H365L267 625L113 0H26L204 721H330L427 107L824 721Z"  />
<glyph unicode="N" horiz-adv-x="750" d="M195 721H315L524 138L668 721H757L581 0H481L259 614L108 0H18L195 721Z"  />
<glyph unicode="O" horiz-adv-x="750" d="M438 739Q498 739 548 717T635 656T691 563T712 445Q712 349 682 264T599 114T477 13T329 -25Q268 -25 219 -4T136 57T82 151T63 275Q63 370 93 454T174 602T293 702T438 739ZM434 651Q377 651 328 621T242 537T185 413T164 258Q164 215 176 180T211 119T264 79T332 64Q384 64 425 84T497 136T549 209T585 292T605 375T611 447Q611 492 598 529T562 594T506 636T434 651Z"  />
<glyph unicode="P" horiz-adv-x="646" d="M275 635L212 380H346Q431 380 480 419T529 525Q529 577 498 606T412 635H275ZM199 721H408Q457 721 497 707T567 667T611 605T627 524Q627 472 607 430T551 357T463 311T348 294H191L120 0H23L199 721Z"  />
<glyph unicode="Q" horiz-adv-x="750" d="M505 -163Q472 -156 448 -147T405 -121T369 -82T338 -25Q297 -25 274 -22T226 -9Q146 22 103 94T60 273Q60 368 90 452T171 600T290 700T435 737Q495 737 545 716T632 655T689 562T709 443Q709 386 694 318T645 186T558 70T430 -8Q442 -28 453 -41T478 -63T508 -77T549 -86L505 -163ZM308 234Q325 221 338 208T362 177T382 135T402 75Q457 90 496 135T560 235T596 348T608 445Q608 490 595 528T559 593T502 635T430 650Q373 650 324 620T239 536T182 411T161 256Q161 203 176 168T213 110T261 78T308 64Q302 87 297 102T286 127T271 145T251 159L308 234Z"  />
<glyph unicode="R" horiz-adv-x="698" d="M276 636L220 410H406Q484 410 527 442T571 534Q571 582 540 609T455 636H276ZM199 721H464Q483 721 517 715T586 690T645 635T670 538Q670 457 625 405T501 332L575 0H481L410 323H199L120 0H22L199 721Z"  />
<glyph unicode="S" horiz-adv-x="594" d="M96 213Q98 172 106 148T135 103Q175 63 256 63Q322 63 362 100T403 199Q403 219 397 237T377 273T339 310T282 352Q255 370 231 389T187 431T157 485T145 554Q145 594 161 628T205 686T273 724T360 738Q475 738 535 664Q546 650 552 636T567 597L493 541Q487 595 450 624T351 654Q298 654 265 626T232 553Q232 523 255 497T334 434Q363 416 391 395T443 345T480 283T494 205Q494 153 476 111T424 38T344 -8T240 -25Q141 -25 78 26Q65 37 56 48T39 73T25 105T12 148L96 213Z"  />
<glyph unicode="T" horiz-adv-x="646" d="M159 721H663L642 638H439L281 0H184L341 637H138L159 721Z"  />
<glyph unicode="U" horiz-adv-x="801" d="M218 721H316L205 271Q200 251 198 233T195 201Q195 137 239 100T361 63Q439 63 491 107T564 233L682 721H780L664 248Q647 176 620 125T554 40T463 -8T344 -24Q289 -24 244 -8T165 37T114 106T96 194Q96 228 105 264L218 721Z"  />
<glyph unicode="V" horiz-adv-x="646" d="M145 721H236L275 155L571 721H675L283 -24H196L145 721Z"  />
<glyph unicode="W" horiz-adv-x="969" d="M543 721H622L629 146L925 721H1020L637 -24H546L539 529L255 -24H163L154 721H238L246 146L543 721Z"  />
<glyph unicode="X" horiz-adv-x="646" d="M513 721H628L388 381L485 0H388L316 280L118 0H2L286 400L205 721H302L357 502L513 721Z"  />
<glyph unicode="Y" horiz-adv-x="646" d="M157 721H252L341 439L559 721H674L375 334L294 0H196L278 335L157 721Z"  />
<glyph unicode="Z" horiz-adv-x="646" d="M201 721H657L645 674L171 85H507L487 0H13L25 50L497 636H180L201 721Z"  />
<glyph unicode="[" horiz-adv-x="375" d="M237 721H398L386 674H306L110 -121H194L183 -167H18L237 721Z"  />
<glyph unicode="\" horiz-adv-x="323" d="M49 730H117L303 -170H235L49 730Z"  />
<glyph unicode="]" horiz-adv-x="375" d="M200 721H366L149 -167H-12L-1 -121H79L274 674H190L200 721Z"  />
<glyph unicode="^" horiz-adv-x="469" d="M116 337H26L199 728H270L443 337H354L234 629L116 337Z"  />
<glyph unicode="_" horiz-adv-x="500" d="M0 -125V-75H500V-125H0Z"  />
<glyph unicode="`" horiz-adv-x="333" d="M220 555L125 689H232L289 555H220Z"  />
<glyph unicode="a" horiz-adv-x="478" d="M338 288Q324 283 315 280T296 273T277 268T251 262Q240 260 234 259T222 256T212 253T199 248Q109 208 109 123Q109 91 128 71T179 51Q219 51 246 74T290 132T319 208T338 288ZM104 431Q116 445 129 458T161 483T205 500T266 507Q350 507 396 476T442 389Q442 379 441 370T437 351L375 103Q372 91 372 81Q372 60 387 55T425 51L410 -8Q393 -12 383 -14T364 -16Q286 -16 285 58Q264 37 248 24T216 2T185 -10T153 -14Q95 -14 61 22T26 120Q26 169 50 212T114 279Q137 293 168 302T248 320Q270 323 284 325T309 331T330 338T354 349Q357 364 357 371Q357 402 335 419T272 437Q237 437 211 426T160 388L104 431Z"  />
<glyph unicode="b" horiz-adv-x="531" d="M310 436Q278 436 253 418T210 373T179 312T159 249T148 194T144 160Q144 116 169 88T235 60Q267 60 297 81T350 137T387 219T401 316Q401 370 377 403T310 436ZM196 721H275L202 422Q237 466 269 485T342 504Q373 504 399 490T445 452T476 394T487 320Q487 254 468 195T415 90T338 19T245 -8Q200 -8 170 16T120 92L98 0H15L196 721Z"  />
<glyph unicode="c" horiz-adv-x="479" d="M407 80Q398 68 384 52T348 21T296 -4T226 -15Q184 -15 150 -1T92 39T55 102T42 184Q42 232 58 288T108 393T190 473T306 506Q443 506 467 365L401 341Q381 437 298 437Q264 437 233 416T179 360T141 279T127 181Q127 121 156 88T235 54Q296 54 346 120L407 80Z"  />
<glyph unicode="d" horiz-adv-x="531" d="M304 435Q273 435 248 421T204 384T172 332T151 275T138 221T134 178Q134 123 158 91T225 59Q258 59 282 77T325 123T356 184T376 248T387 302T391 334Q391 377 366 406T304 435ZM491 721H573L396 0H313L332 74Q300 30 269 11T201 -9Q168 -9 140 4T91 43T60 101T48 176Q48 227 63 284T109 390T184 471T287 503Q384 503 412 400L491 721Z"  />
<glyph unicode="e" horiz-adv-x="479" d="M364 287Q370 320 370 337Q370 385 347 412T281 439Q270 439 252 436T213 417T171 372T134 287H364ZM396 80Q385 67 369 51T330 20T277 -5T207 -15Q122 -15 77 34T32 177Q32 249 51 309T105 414T188 482T294 507Q328 507 356 495T405 461T437 407T448 337Q448 311 445 287T432 220H117Q115 212 114 201T113 174Q113 120 141 87T216 53Q280 53 340 122L396 80Z"  />
<glyph unicode="f" horiz-adv-x="323" d="M173 494L203 618Q218 681 260 710T375 739Q386 739 405 738T446 735L427 659Q412 661 400 661T379 662Q295 662 279 590L255 494H341L324 428H240L110 -137H27L158 428H65L83 494H173Z"  />
<glyph unicode="g" horiz-adv-x="531" d="M231 55Q272 57 303 84T354 163Q363 185 370 210T382 258T391 303T394 340Q394 384 369 412T304 440Q260 440 229 410T177 339T148 253T138 178Q138 155 143 133T159 93T187 66T231 55ZM335 66Q274 -14 203 -14Q170 -14 142 0T95 40T64 102T53 181Q53 247 72 305T124 408T200 479T293 505Q390 505 417 400L442 494H525L388 -49Q371 -115 320 -151T192 -188Q117 -188 71 -161T-4 -74L68 -44Q88 -86 116 -103T193 -121Q288 -121 310 -30L335 66Z"  />
<glyph unicode="h" horiz-adv-x="593" d="M222 721H303L227 418Q242 435 259 451T295 479T338 499T392 507Q448 507 484 471T520 379Q520 354 514 330L434 0H351L427 304Q433 329 433 354Q433 397 412 420T349 443Q317 443 293 435T251 409T220 362T195 289L122 0H42L222 721Z"  />
<glyph unicode="i" horiz-adv-x="271" d="M217 697H289L266 605H194L217 697ZM156 494H238L116 0H33L156 494Z"  />
<glyph unicode="j" horiz-adv-x="271" d="M208 696H290L269 605H187L208 696ZM162 494H243L111 -80Q85 -190 -31 -190Q-44 -190 -62 -188T-110 -180L-91 -114Q-77 -116 -66 -117T-44 -119Q20 -119 34 -60L162 494Z"  />
<glyph unicode="k" horiz-adv-x="479" d="M188 721H269L157 260L356 495H458L318 344L421 0H336L254 275L127 140L92 0H11L188 721Z"  />
<glyph unicode="l" horiz-adv-x="271" d="M204 721H285L109 0H27L204 721Z"  />
<glyph unicode="m" horiz-adv-x="853" d="M206 416Q217 428 232 442T267 470T311 492T364 501Q416 501 448 474T489 395Q497 405 512 422T550 457T602 488T664 501Q691 501 714 492T754 467T780 429T790 381Q790 372 789 363T786 345L702 0H619L699 324Q701 334 702 343T704 362Q704 397 683 416T622 435Q569 435 531 400T478 302L404 0H321L402 332Q406 345 406 361Q406 396 384 415T322 435Q267 435 230 397T174 287L104 0H22L144 494H224L206 416Z"  />
<glyph unicode="n" horiz-adv-x="593" d="M226 410Q240 425 257 441T293 470T336 492T388 501Q417 501 441 491T482 464T510 423T520 371Q520 349 514 328L435 0H354L430 318Q433 328 434 337T435 356Q435 394 413 414T348 435Q294 435 253 394T194 281L125 0H43L166 494H246L226 410Z"  />
<glyph unicode="o" horiz-adv-x="531" d="M230 -14Q131 -14 76 39T21 190Q21 257 43 314T103 414T194 481T308 505Q403 505 457 450T510 295Q510 230 488 174T429 76T340 10T230 -14ZM226 51Q268 51 304 70T367 123T409 202T424 302Q424 363 392 400T305 438Q263 438 227 419T164 367T122 288T107 188Q107 125 139 88T226 51Z"  />
<glyph unicode="p" horiz-adv-x="531" d="M237 54Q270 54 300 76T354 135T391 221T405 324Q405 376 380 407T313 438Q284 438 260 422T218 379T186 321T164 257T151 200T147 158Q147 111 172 83T237 54ZM205 418Q240 466 271 485T343 505Q375 505 402 492T448 454T478 395T489 321Q489 254 470 194T420 88T346 15T257 -12Q219 -12 195 -1T157 26T135 60T124 92L52 -192H-28L141 494H224L205 418Z"  />
<glyph unicode="q" horiz-adv-x="531" d="M221 55Q250 55 273 70T315 110T347 166T370 228T383 289T387 338Q387 383 363 410T297 438Q264 438 234 416T181 356T145 269T131 166Q131 115 155 85T221 55ZM331 76Q312 51 296 35T263 8T229 -7T192 -12Q159 -12 132 1T86 40T57 100T46 178Q46 244 65 303T118 407T194 478T287 505Q381 505 411 403L435 494H516L348 -192H266L331 76Z"  />
<glyph unicode="r" horiz-adv-x="375" d="M152 494H235L186 293L270 457Q283 481 306 491T339 501Q348 501 358 498T384 487L370 406Q353 414 344 416T324 419Q298 419 276 398T227 329Q215 307 204 284T182 238T165 196T154 161L114 0H32L152 494Z"  />
<glyph unicode="s" horiz-adv-x="479" d="M78 153Q86 132 95 114T120 82T158 60T218 52Q271 52 299 71T328 124Q328 152 307 171T233 210Q213 217 189 227T144 254T109 295T94 356Q94 388 107 415T145 463T201 494T273 506Q317 506 348 493T399 463T431 427T448 397L381 363Q355 404 327 421T260 439Q223 439 198 418T172 366Q172 338 192 320T267 284Q282 279 306 269T354 242T395 198T412 135Q412 65 359 25T215 -16Q159 -16 124 -6T67 24T33 68T11 124L78 153Z"  />
<glyph unicode="t" horiz-adv-x="323" d="M210 691L301 715L239 494H311L295 428H219L132 119Q129 105 129 94Q129 56 183 56Q201 56 226 61T277 74L259 1L238 -4Q210 -11 192 -13T150 -15Q97 -15 70 6T42 70Q42 94 48 118L136 428H68L85 494H155L210 691Z"  />
<glyph unicode="u" horiz-adv-x="593" d="M158 494H239L167 207Q162 188 160 171T157 142Q157 104 180 82T244 60Q299 60 338 97T395 202L468 494H550L427 0H345L364 79Q353 67 337 52T301 25T256 3T200 -6Q143 -6 108 30T73 127Q73 144 77 167T87 217L158 494Z"  />
<glyph unicode="v" horiz-adv-x="479" d="M105 494H179L198 114L400 494H485L212 -15H131L105 494Z"  />
<glyph unicode="w" horiz-adv-x="750" d="M96 494H170L202 134L387 494H455L488 134L671 494H754L495 -15H425L395 347L210 -15H142L96 494Z"  />
<glyph unicode="x" horiz-adv-x="479" d="M121 494H195L249 334L367 494H455L277 251L362 0H287L226 182L92 0H5L198 263L121 494Z"  />
<glyph unicode="y" horiz-adv-x="479" d="M98 494H169L210 115L399 494H479L206 -52Q189 -85 175 -111T141 -155T95 -182T27 -191Q11 -191 -2 -190T-40 -186L-21 -121Q6 -124 20 -124Q47 -124 64 -118T95 -98T121 -61T150 -4L98 494Z"  />
<glyph unicode="z" horiz-adv-x="479" d="M120 494H455L441 435L140 70H377L360 0H5L16 47L327 424H103L120 494Z"  />
<glyph unicode="{" horiz-adv-x="334" d="M36 317Q73 318 93 333T124 375T135 434T137 506Q137 561 140 605T157 681T203 729T292 746H319V670H304Q278 670 262 666T236 651T224 620T220 569V498Q220 441 214 404T194 343T162 304T118 277Q146 265 165 248T197 205T214 143T220 57V-15Q220 -46 223 -65T236 -96T261 -111T304 -115H319V-192H292Q234 -192 203 -176T158 -128T140 -52T137 48Q137 85 136 119T124 179T94 220T36 237V317Z"  />
<glyph unicode="|" horiz-adv-x="546" d="M254 750H332V-250H254V750Z"  />
<glyph unicode="}" horiz-adv-x="334" d="M72 746Q130 746 161 730T206 682T224 607T227 506Q227 468 228 435T240 375T270 334T328 317V237Q290 236 270 221T240 179T229 119T227 48Q227 -8 224 -52T207 -127T161 -175T72 -192H45V-115H60Q86 -115 102 -111T128 -96T140 -66T144 -15V57Q144 106 149 142T166 204T197 247T246 277Q222 289 204 302T172 340T151 401T144 498V569Q144 600 141 620T128 651T103 666T60 670H45V746H72Z"  />
<glyph unicode="~" horiz-adv-x="656" d="M594 338Q519 274 451 274Q436 274 423 276T393 283T354 298T301 323Q267 339 245 346T206 353Q141 353 62 284V366Q137 429 210 429Q223 429 236 427T266 420T303 406T353 383Q388 366 411 359T452 351Q486 351 518 367T594 421V338Z"  />
<glyph unicode="&#xA0;" horiz-adv-x="240" />
<glyph unicode="&#xA1;" horiz-adv-x="271" d="M244 553L213 428H131L162 553H244ZM136 366H176L68 -166H-14L136 366Z"  />
<glyph unicode="&#xA2;" horiz-adv-x="479" d="M284 437Q250 437 219 416T165 360T127 279T113 181Q113 119 146 83L284 437ZM379 679H440L366 492Q437 460 453 365L387 341Q375 398 339 422L196 57Q209 54 221 54Q282 54 332 120L393 80Q384 68 370 52T334 21T282 -4T212 -15Q187 -15 170 -11L101 -186H41L117 9Q75 32 52 77T28 184Q28 232 44 288T94 393T176 473T292 506Q305 506 310 504L379 679Z"  />
<glyph unicode="&#xA3;" horiz-adv-x="593" d="M157 100Q134 124 106 124Q88 124 76 113T64 85Q64 71 74 62T98 52Q114 52 130 65T157 100ZM204 382Q204 409 205 428T207 464T211 494T217 526Q234 604 283 648T405 692Q440 692 470 681T523 652T559 608T572 553Q572 536 569 512L485 539Q485 546 484 559T476 585T452 607T406 617Q365 617 343 595T310 538T297 462T294 382H466L448 303H293Q293 252 286 210T262 124Q293 94 314 82T359 70Q397 70 415 93T444 178L530 202Q526 100 479 44T351 -13Q282 -13 219 49Q190 16 163 2T103 -13Q55 -13 29 13T2 86Q2 108 11 128T35 163T71 186T115 195Q130 195 142 192T175 179Q182 176 184 175T191 172Q202 220 204 254T206 303H55L76 382H204Z"  />
<glyph unicode="&#xA4;" horiz-adv-x="667" d="M184 325Q184 294 196 267T228 219T275 187T334 175Q365 175 392 187T440 219T472 266T484 325Q484 356 472 383T440 431T393 463T334 475Q303 475 276 463T228 431T196 384T184 325ZM463 145Q436 125 404 114T334 103Q297 103 264 114T205 145L141 82L89 134L154 197Q112 253 112 326Q112 362 122 394T153 454L88 518L142 570L204 505Q232 525 264 536T334 548Q407 548 463 506L526 570L577 518L515 455Q535 428 546 395T557 326Q557 253 515 197L577 134L526 82L463 145Z"  />
<glyph unicode="&#xA5;" horiz-adv-x="646" d="M291 333H74L91 395H270L171 721H265L354 438L573 721H688L437 395H621L604 333H389L367 244H584L567 182H352L307 0H210L254 182H37L54 244H269L291 333Z"  />
<glyph unicode="&#xA6;" horiz-adv-x="546" d="M254 175H332V-175H254V175ZM254 675H332V325H254V675Z"  />
<glyph unicode="&#xA7;" horiz-adv-x="530" d="M245 415Q189 398 160 368T131 296Q131 278 135 264T151 235T181 206T229 172Q239 166 245 162T258 153T269 145T283 134Q345 157 369 182T394 249Q394 285 367 318T272 396Q261 404 257 407T245 415ZM111 -10Q111 -20 111 -38T120 -75T147 -106T202 -119Q240 -119 266 -96T292 -39Q292 -21 286 -6T264 25T222 63T153 116Q100 156 78 193T55 279Q55 322 72 353T113 405T161 440T201 459Q179 488 169 514T159 573Q159 610 173 641T212 694T274 729T353 741Q429 741 467 703T512 594L432 574Q430 628 408 653T341 678Q298 678 271 652T243 585Q243 567 248 551T265 519T298 485T348 446Q375 426 398 407T439 365T465 318T475 259Q475 194 421 143Q411 134 403 128T384 115T360 103T328 90Q350 62 361 30T373 -34Q373 -67 360 -95T323 -142T266 -173T192 -184Q105 -184 62 -138Q53 -128 47 -118T37 -95T31 -66T29 -28L111 -10Z"  />
<glyph unicode="&#xA8;" horiz-adv-x="333" d="M110 573L131 673H223L202 573H110ZM290 573L311 673H403L382 573H290Z"  />
<glyph unicode="&#xA9;" horiz-adv-x="738" d="M481 437Q467 473 439 492T371 512Q311 512 277 470T242 356Q242 286 275 246T366 206Q411 206 443 231T487 300L547 282Q532 220 485 184T370 148Q325 148 290 163T229 205T190 272T176 359Q176 456 228 511T371 566Q437 566 479 537T539 451L481 437ZM0 360Q0 436 29 503T108 620T225 699T368 728Q444 728 511 699T629 620T708 503T737 360Q737 283 708 216T629 99T512 20T368 -9Q292 -9 225 20T108 99T29 216T0 360ZM62 360Q62 296 86 240T151 142T249 76T368 52Q432 52 488 76T585 142T651 240T675 360Q675 424 651 480T586 577T488 643T368 667Q305 667 249 643T152 578T86 480T62 360Z"  />
<glyph unicode="&#xAA;" horiz-adv-x="302" d="M260 601Q252 598 247 596T235 592T222 588T203 584Q114 565 114 498Q114 477 125 464T157 451Q181 451 196 462T223 493T243 540T260 601ZM111 690Q133 716 156 727T214 738Q265 738 295 718T325 664Q325 659 325 656T323 648L283 487Q281 482 281 478T281 469Q281 458 287 455T313 451L304 414Q293 411 286 410T273 409Q249 409 238 420T225 456Q201 430 183 420T142 410Q105 410 84 432T62 494Q62 517 71 539T96 577Q112 594 133 603T194 618Q209 621 219 622T237 626T252 632T270 640Q273 659 267 670T252 686T232 693T216 695Q197 695 183 689T146 664L111 690Z"  />
<glyph unicode="&#xAB;" horiz-adv-x="479" d="M197 518H283L106 268L182 40H108L27 279L197 518ZM385 518H472L294 269L370 40H296L215 281L385 518Z"  />
<glyph unicode="&#xAC;" horiz-adv-x="667" d="M66 485H601V170H524V408H66V485Z"  />
<glyph unicode="&#xAD;" horiz-adv-x="375" d="M66 287H319L300 207H47L66 287Z"  />
<glyph unicode="&#xAE;" horiz-adv-x="738" d="M0 360Q0 436 29 503T108 620T225 699T368 728Q444 728 511 699T629 620T708 503T737 360Q737 283 708 216T629 99T512 20T368 -9Q292 -9 225 20T108 99T29 216T0 360ZM62 360Q62 296 86 240T151 142T249 76T368 52Q432 52 488 76T585 142T651 240T675 360Q675 424 651 480T586 577T488 643T368 667Q305 667 249 643T152 578T86 480T62 360ZM207 156V552H343Q366 552 381 552T409 550T430 546T450 539Q477 528 495 502T513 445Q513 399 482 368T399 333Q422 324 442 303T492 233L540 156H462L426 218Q407 251 394 272T367 304T341 320T309 324H271V156H207ZM271 379H349Q399 379 422 393T445 439Q445 472 423 485T344 498H271V379Z"  />
<glyph unicode="&#xAF;" horiz-adv-x="333" d="M78 574L93 641H396L381 574H78Z"  />
<glyph unicode="&#xB0;" horiz-adv-x="400" d="M105 593Q105 621 115 645T144 688T187 717T240 728Q268 728 292 718T335 689T364 646T375 593Q375 565 365 540T336 497T293 468T240 457Q212 457 188 467T145 496T116 540T105 593ZM158 593Q158 558 182 534T240 510Q275 510 298 534T322 593Q322 627 299 651T240 675Q205 675 182 651T158 593Z"  />
<glyph unicode="&#xB1;" horiz-adv-x="667" d="M66 447H294V677H371V447H601V370H371V142H294V370H66V447ZM66 53H601V-24H66V53Z"  />
<glyph unicode="&#xB2;" horiz-adv-x="323" d="M113 550Q111 564 110 575T109 596Q109 624 121 649T154 694T202 725T260 737Q310 737 338 714T367 649Q367 611 349 581T306 526T253 485T208 457Q190 446 179 440T160 427T144 413T128 395H302L287 334H37Q46 361 55 380T79 417T113 450T165 486Q179 495 200 510T242 545T278 590T293 643Q293 663 282 675T251 688Q235 688 221 682T197 665T180 640T173 609Q173 604 173 598T175 584L113 550Z"  />
<glyph unicode="&#xB3;" horiz-adv-x="323" d="M118 616Q117 647 128 670T159 708T204 731T255 739Q352 739 352 661Q352 627 330 598T263 547Q317 524 317 475Q317 446 304 419T268 372T216 340T153 328Q105 328 79 350T52 414Q52 443 76 481L135 456Q121 432 121 415Q121 397 132 387T162 376Q194 376 216 403T239 471Q239 523 159 523L171 571H188Q206 571 222 577T251 594T270 619T277 650Q277 691 241 691Q217 691 203 678T188 640L118 616Z"  />
<glyph unicode="&#xB4;" horiz-adv-x="333" d="M165 555L256 689H368L238 555H165Z"  />
<glyph unicode="&#xB5;" horiz-adv-x="556" d="M121 518H209L151 248Q148 236 146 223T142 196T139 170T138 151Q138 110 164 86T235 62Q274 62 307 82T358 137Q367 156 374 179T390 239L448 518H536L425 0H347L355 41Q329 18 296 3T224 -12Q189 -12 157 6T109 49L56 -200H-30L121 518Z"  />
<glyph unicode="&#xB6;" horiz-adv-x="538" d="M212 -194V316Q120 321 67 375T14 518Q14 579 42 626T122 698Q137 705 150 709T176 716T206 720T245 721H554V636H484V-194H401V636H292V-194H212Z"  />
<glyph unicode="&#xB7;" horiz-adv-x="271" d="M87 343H184V217H87V343Z"  />
<glyph unicode="&#xB8;" horiz-adv-x="370" d="M31 -153Q48 -154 62 -154T100 -154Q127 -154 143 -151T169 -143T182 -132T185 -120Q185 -100 165 -90T106 -78L126 0H194L182 -44Q224 -50 247 -72T270 -127Q270 -169 227 -191T103 -213Q82 -213 59 -212T20 -208L31 -153Z"  />
<glyph unicode="&#xB9;" horiz-adv-x="323" d="M141 652Q164 665 182 676T214 698T240 720T265 746H316L214 334H144L221 645Q193 626 174 617T128 602L141 652Z"  />
<glyph unicode="&#xBA;" horiz-adv-x="333" d="M245 738Q305 738 339 704T373 607Q373 565 360 529T322 467T264 426T192 411Q133 411 99 445T64 537Q64 580 78 617T116 681T173 723T245 738ZM242 696Q216 696 194 684T155 651T129 600T119 538Q119 499 139 476T192 452Q249 452 284 496T319 612Q319 650 298 673T242 696Z"  />
<glyph unicode="&#xBB;" horiz-adv-x="479" d="M297 518H371L451 279L282 41H197L373 291L297 518ZM109 518H184L264 277L94 40H8L185 289L109 518Z"  />
<glyph unicode="&#xBC;" horiz-adv-x="854" d="M464 -21H581L623 146L464 -21ZM649 242H714L647 -23H696L682 -81H634L611 -170H545L567 -81H399L419 1L649 242ZM909 723L13 -169H-55L845 723H909ZM191 630Q213 641 230 651T262 673T289 696T315 723H367L264 311H195L272 623Q242 603 222 594T178 579L191 630Z"  />
<glyph unicode="&#xBD;" horiz-adv-x="854" d="M908 723L14 -169H-54L844 723H908ZM501 56Q499 71 498 83T497 106Q497 134 509 158T543 201T593 231T654 242Q699 242 726 218T754 153Q754 117 738 88T697 36T646 -5T598 -36Q580 -47 569 -54T549 -67T533 -81T514 -99H690L675 -160H425Q434 -135 444 -115T469 -77T506 -41T563 0Q577 9 597 23T635 56T667 98T680 150Q680 170 668 182T635 194Q624 194 611 190T586 174T568 142T564 90L501 56ZM192 633Q230 650 257 670T312 723H366L263 311H194L273 625Q259 615 248 608T225 596T204 588T180 581L192 633Z"  />
<glyph unicode="&#xBE;" horiz-adv-x="854" d="M908 723L12 -169H-54L846 723H908ZM152 600Q151 631 162 654T193 692T238 715T289 723Q337 723 361 703T386 645Q386 610 364 581T297 530Q351 509 351 458Q351 429 338 402T302 355T250 323T187 311Q139 311 113 333T86 397Q86 428 110 464L169 439Q161 426 158 418T155 398Q155 381 166 371T196 360Q228 360 250 387T273 454Q273 506 193 506L205 554H222Q259 554 285 577T311 634Q311 675 275 675Q250 675 236 661T222 623L152 600ZM465 -22H581L623 145L465 -22ZM649 242H713L647 -23H696L681 -82H633L611 -170H545L566 -82H398L420 2L649 242Z"  />
<glyph unicode="&#xBF;" horiz-adv-x="479" d="M305 553H386L355 429H274L305 553ZM326 -13Q324 -59 313 -88T278 -140Q234 -184 160 -184Q128 -184 101 -173T54 -140T23 -90T12 -26Q12 20 30 59T74 130T129 187T180 229Q203 247 218 261T245 289T264 322T281 366H324Q319 327 311 297T287 239T251 187T198 131Q170 104 151 83T121 43T105 6T100 -33Q100 -71 119 -93T170 -115Q201 -115 217 -99T240 -60T247 -17T247 15L326 -13Z"  />
<glyph unicode="&#xC0;" horiz-adv-x="698" d="M417 583L233 259H462L417 583ZM400 740H487L592 0H498L474 172H184L86 0H-20L400 740ZM403 782L308 916H415L472 782H403Z"  />
<glyph unicode="&#xC1;" horiz-adv-x="698" d="M417 583L233 259H462L417 583ZM400 740H487L592 0H498L474 172H184L86 0H-20L400 740ZM398 782L489 916H601L471 782H398Z"  />
<glyph unicode="&#xC2;" horiz-adv-x="698" d="M417 583L233 259H462L417 583ZM400 740H487L592 0H498L474 172H184L86 0H-20L400 740ZM296 782L426 916H523L584 782H506L467 869L387 782H296Z"  />
<glyph unicode="&#xC3;" horiz-adv-x="698" d="M417 583L233 259H462L417 583ZM400 740H487L592 0H498L474 172H184L86 0H-20L400 740ZM295 797Q303 827 311 848T332 882Q353 907 393 907Q402 907 409 906T426 903T447 895T476 883Q500 872 511 869T531 865Q556 865 566 903H625Q620 855 594 826T528 797Q517 797 507 799T480 809L452 821L433 828Q414 836 409 837T396 838Q363 838 356 797H295Z"  />
<glyph unicode="&#xC4;" horiz-adv-x="698" d="M417 583L233 259H462L417 583ZM400 740H487L592 0H498L474 172H184L86 0H-20L400 740ZM333 800L354 900H446L425 800H333ZM513 800L534 900H626L605 800H513Z"  />
<glyph unicode="&#xC5;" horiz-adv-x="698" d="M417 583L233 259H462L417 583ZM400 740H487L592 0H498L474 172H184L86 0H-20L400 740ZM371 845Q371 882 396 908T460 934Q497 934 523 908T549 845Q549 808 523 782T460 756Q423 756 397 782T371 845ZM407 845Q407 823 422 808T460 792Q482 792 497 807T512 845Q512 867 497 882T460 897Q438 897 423 882T407 845Z"  />
<glyph unicode="&#xC6;" horiz-adv-x="958" d="M472 632L228 253H412L506 632H472ZM430 721H920L899 634H600L545 413H831L809 326H523L464 87H846L824 0H349L391 172H177L64 0H-37L430 721Z"  />
<glyph unicode="&#xC7;" horiz-adv-x="750" d="M49 269Q49 316 59 369T91 474T145 575T220 659T319 718T440 740Q501 740 544 726T618 692T668 649T701 609L636 531Q601 592 555 623T440 655Q381 655 337 633T261 576T208 497T175 410T157 329T152 267Q152 170 199 117T331 63Q375 63 412 78T478 116T529 162T565 203L619 124Q602 104 578 78T520 29T438 -9T328 -25Q322 -25 317 -25T306 -23L297 -54Q339 -60 362 -82T385 -137Q385 -179 342 -201T218 -223Q197 -223 174 -222T135 -218L146 -163Q163 -164 177 -164T215 -164Q242 -164 258 -161T284 -153T297 -142T300 -130Q300 -110 280 -100T221 -88L241 -12Q150 12 100 85T49 269Z"  />
<glyph unicode="&#xC8;" horiz-adv-x="594" d="M184 721H582L561 634H261L206 413H491L470 326H185L126 87H504L482 0H7L184 721ZM351 782L256 916H363L420 782H351Z"  />
<glyph unicode="&#xC9;" horiz-adv-x="594" d="M184 721H582L561 634H261L206 413H491L470 326H185L126 87H504L482 0H7L184 721ZM296 782L387 916H499L369 782H296Z"  />
<glyph unicode="&#xCA;" horiz-adv-x="594" d="M184 721H582L561 634H261L206 413H491L470 326H185L126 87H504L482 0H7L184 721ZM234 782L364 916H461L522 782H444L405 869L325 782H234Z"  />
<glyph unicode="&#xCB;" horiz-adv-x="594" d="M184 721H582L561 634H261L206 413H491L470 326H185L126 87H504L482 0H7L184 721ZM251 800L272 900H364L343 800H251ZM431 800L452 900H544L523 800H431Z"  />
<glyph unicode="&#xCC;" horiz-adv-x="323" d="M213 721H311L132 0H36L213 721ZM215 782L120 916H227L284 782H215Z"  />
<glyph unicode="&#xCD;" horiz-adv-x="323" d="M213 721H311L132 0H36L213 721ZM210 782L301 916H413L283 782H210Z"  />
<glyph unicode="&#xCE;" horiz-adv-x="323" d="M213 721H311L132 0H36L213 721ZM108 782L238 916H335L396 782H318L279 869L199 782H108Z"  />
<glyph unicode="&#xCF;" horiz-adv-x="323" d="M213 721H311L132 0H36L213 721ZM125 800L146 900H238L217 800H125ZM305 800L326 900H418L397 800H305Z"  />
<glyph unicode="&#xD0;" horiz-adv-x="750" d="M197 721H418Q492 721 544 703T632 655T688 589T719 518T732 453T735 405Q735 364 727 318T699 227T649 141T571 69T463 19T321 0H19L97 317H24L44 402H118L197 721ZM439 402L419 317H196L140 89H348Q409 89 461 113T552 179T611 279T633 406Q633 458 620 499T581 570T521 616T441 632H273L217 402H439Z"  />
<glyph unicode="&#xD1;" horiz-adv-x="750" d="M195 721H315L524 138L668 721H757L581 0H481L259 614L108 0H18L195 721ZM321 797Q329 827 337 848T358 882Q379 907 419 907Q428 907 435 906T452 903T473 895T502 883Q526 872 537 869T557 865Q582 865 592 903H651Q646 855 620 826T554 797Q543 797 533 799T506 809L478 821L459 828Q440 836 435 837T422 838Q389 838 382 797H321Z"  />
<glyph unicode="&#xD2;" horiz-adv-x="750" d="M438 739Q498 739 548 717T635 656T691 563T712 445Q712 349 682 264T599 114T477 13T329 -25Q268 -25 219 -4T136 57T82 151T63 275Q63 370 93 454T174 602T293 702T438 739ZM434 651Q377 651 328 621T242 537T185 413T164 258Q164 215 176 180T211 119T264 79T332 64Q384 64 425 84T497 136T549 209T585 292T605 375T611 447Q611 492 598 529T562 594T506 636T434 651ZM429 782L334 916H441L498 782H429Z"  />
<glyph unicode="&#xD3;" horiz-adv-x="750" d="M438 739Q498 739 548 717T635 656T691 563T712 445Q712 349 682 264T599 114T477 13T329 -25Q268 -25 219 -4T136 57T82 151T63 275Q63 370 93 454T174 602T293 702T438 739ZM434 651Q377 651 328 621T242 537T185 413T164 258Q164 215 176 180T211 119T264 79T332 64Q384 64 425 84T497 136T549 209T585 292T605 375T611 447Q611 492 598 529T562 594T506 636T434 651ZM374 782L465 916H577L447 782H374Z"  />
<glyph unicode="&#xD4;" horiz-adv-x="750" d="M438 739Q498 739 548 717T635 656T691 563T712 445Q712 349 682 264T599 114T477 13T329 -25Q268 -25 219 -4T136 57T82 151T63 275Q63 370 93 454T174 602T293 702T438 739ZM434 651Q377 651 328 621T242 537T185 413T164 258Q164 215 176 180T211 119T264 79T332 64Q384 64 425 84T497 136T549 209T585 292T605 375T611 447Q611 492 598 529T562 594T506 636T434 651ZM312 782L442 916H539L600 782H522L483 869L403 782H312Z"  />
<glyph unicode="&#xD5;" horiz-adv-x="750" d="M438 739Q498 739 548 717T635 656T691 563T712 445Q712 349 682 264T599 114T477 13T329 -25Q268 -25 219 -4T136 57T82 151T63 275Q63 370 93 454T174 602T293 702T438 739ZM434 651Q377 651 328 621T242 537T185 413T164 258Q164 215 176 180T211 119T264 79T332 64Q384 64 425 84T497 136T549 209T585 292T605 375T611 447Q611 492 598 529T562 594T506 636T434 651ZM311 797Q319 827 327 848T348 882Q369 907 409 907Q418 907 425 906T442 903T463 895T492 883Q516 872 527 869T547 865Q572 865 582 903H641Q636 855 610 826T544 797Q533 797 523 799T496 809L468 821L449 828Q430 836 425 837T412 838Q379 838 372 797H311Z"  />
<glyph unicode="&#xD6;" horiz-adv-x="750" d="M438 739Q498 739 548 717T635 656T691 563T712 445Q712 349 682 264T599 114T477 13T329 -25Q268 -25 219 -4T136 57T82 151T63 275Q63 370 93 454T174 602T293 702T438 739ZM434 651Q377 651 328 621T242 537T185 413T164 258Q164 215 176 180T211 119T264 79T332 64Q384 64 425 84T497 136T549 209T585 292T605 375T611 447Q611 492 598 529T562 594T506 636T434 651ZM329 800L350 900H442L421 800H329ZM509 800L530 900H622L601 800H509Z"  />
<glyph unicode="&#xD7;" horiz-adv-x="668" d="M86 519L140 573L334 379L528 573L583 519L389 325L581 132L527 78L335 271L141 78L87 132L280 325L86 519Z"  />
<glyph unicode="&#xD8;" horiz-adv-x="750" d="M544 607Q521 628 492 639T429 651Q372 651 323 621T237 537T180 413T159 258Q159 205 178 164L544 607ZM230 96Q271 64 327 64Q379 64 420 84T492 136T544 209T580 292T600 375T606 447Q606 495 591 534L230 96ZM111 84Q85 120 72 168T58 275Q58 370 88 454T169 602T288 702T433 739Q484 739 527 724T604 680L653 740L717 686L660 617Q683 582 695 539T707 445Q707 349 677 264T594 114T472 13T324 -25Q278 -25 240 -13T169 22L122 -35L57 19L111 84Z"  />
<glyph unicode="&#xD9;" horiz-adv-x="801" d="M218 721H316L205 271Q200 251 198 233T195 201Q195 137 239 100T361 63Q439 63 491 107T564 233L682 721H780L664 248Q647 176 620 125T554 40T463 -8T344 -24Q289 -24 244 -8T165 37T114 106T96 194Q96 228 105 264L218 721ZM454 782L359 916H466L523 782H454Z"  />
<glyph unicode="&#xDA;" horiz-adv-x="801" d="M218 721H316L205 271Q200 251 198 233T195 201Q195 137 239 100T361 63Q439 63 491 107T564 233L682 721H780L664 248Q647 176 620 125T554 40T463 -8T344 -24Q289 -24 244 -8T165 37T114 106T96 194Q96 228 105 264L218 721ZM419 782L510 916H622L492 782H419Z"  />
<glyph unicode="&#xDB;" horiz-adv-x="801" d="M218 721H316L205 271Q200 251 198 233T195 201Q195 137 239 100T361 63Q439 63 491 107T564 233L682 721H780L664 248Q647 176 620 125T554 40T463 -8T344 -24Q289 -24 244 -8T165 37T114 106T96 194Q96 228 105 264L218 721ZM337 782L467 916H564L625 782H547L508 869L428 782H337Z"  />
<glyph unicode="&#xDC;" horiz-adv-x="801" d="M218 721H316L205 271Q200 251 198 233T195 201Q195 137 239 100T361 63Q439 63 491 107T564 233L682 721H780L664 248Q647 176 620 125T554 40T463 -8T344 -24Q289 -24 244 -8T165 37T114 106T96 194Q96 228 105 264L218 721ZM354 800L375 900H467L446 800H354ZM534 800L555 900H647L626 800H534Z"  />
<glyph unicode="&#xDD;" horiz-adv-x="646" d="M157 721H252L341 439L559 721H674L375 334L294 0H196L278 335L157 721ZM322 782L413 916H525L395 782H322Z"  />
<glyph unicode="&#xDE;" horiz-adv-x="646" d="M241 488L179 233H316Q400 233 447 271T494 379Q494 430 463 459T376 488H241ZM298 721L262 574H372Q422 574 463 560T533 521T579 460T595 381Q595 327 576 284T520 210T431 164T315 147H158L123 0H25L201 721H298Z"  />
<glyph unicode="&#xDF;" horiz-adv-x="531" d="M361 423Q376 417 395 407T432 378T462 330T474 257Q474 200 460 151T420 66T361 9T288 -12Q237 -12 205 19T173 100Q173 107 173 115T175 135H243V112Q243 87 256 71T292 55Q313 55 329 70T356 108T374 159T385 210T390 252T392 274Q392 384 264 396L281 462Q325 464 351 473T399 504Q417 521 426 544T436 592Q436 629 414 652T358 676Q316 676 285 645T240 560L67 -137H-15L161 573Q181 653 231 697T353 741Q389 741 418 730T470 700T504 654T516 595Q516 569 510 545T489 498T448 458T382 429L361 423Z"  />
<glyph unicode="&#xE0;" horiz-adv-x="478" d="M338 288Q324 283 315 280T296 273T277 268T251 262Q240 260 234 259T222 256T212 253T199 248Q109 208 109 123Q109 91 128 71T179 51Q219 51 246 74T290 132T319 208T338 288ZM104 431Q116 445 129 458T161 483T205 500T266 507Q350 507 396 476T442 389Q442 379 441 370T437 351L375 103Q372 91 372 81Q372 60 387 55T425 51L410 -8Q393 -12 383 -14T364 -16Q286 -16 285 58Q264 37 248 24T216 2T185 -10T153 -14Q95 -14 61 22T26 120Q26 169 50 212T114 279Q137 293 168 302T248 320Q270 323 284 325T309 331T330 338T354 349Q357 364 357 371Q357 402 335 419T272 437Q237 437 211 426T160 388L104 431ZM293 555L198 689H305L362 555H293Z"  />
<glyph unicode="&#xE1;" horiz-adv-x="478" d="M338 288Q324 283 315 280T296 273T277 268T251 262Q240 260 234 259T222 256T212 253T199 248Q109 208 109 123Q109 91 128 71T179 51Q219 51 246 74T290 132T319 208T338 288ZM104 431Q116 445 129 458T161 483T205 500T266 507Q350 507 396 476T442 389Q442 379 441 370T437 351L375 103Q372 91 372 81Q372 60 387 55T425 51L410 -8Q393 -12 383 -14T364 -16Q286 -16 285 58Q264 37 248 24T216 2T185 -10T153 -14Q95 -14 61 22T26 120Q26 169 50 212T114 279Q137 293 168 302T248 320Q270 323 284 325T309 331T330 338T354 349Q357 364 357 371Q357 402 335 419T272 437Q237 437 211 426T160 388L104 431ZM238 555L329 689H441L311 555H238Z"  />
<glyph unicode="&#xE2;" horiz-adv-x="478" d="M338 288Q324 283 315 280T296 273T277 268T251 262Q240 260 234 259T222 256T212 253T199 248Q109 208 109 123Q109 91 128 71T179 51Q219 51 246 74T290 132T319 208T338 288ZM104 431Q116 445 129 458T161 483T205 500T266 507Q350 507 396 476T442 389Q442 379 441 370T437 351L375 103Q372 91 372 81Q372 60 387 55T425 51L410 -8Q393 -12 383 -14T364 -16Q286 -16 285 58Q264 37 248 24T216 2T185 -10T153 -14Q95 -14 61 22T26 120Q26 169 50 212T114 279Q137 293 168 302T248 320Q270 323 284 325T309 331T330 338T354 349Q357 364 357 371Q357 402 335 419T272 437Q237 437 211 426T160 388L104 431ZM166 555L296 689H393L454 555H376L337 642L257 555H166Z"  />
<glyph unicode="&#xE3;" horiz-adv-x="478" d="M338 288Q324 283 315 280T296 273T277 268T251 262Q240 260 234 259T222 256T212 253T199 248Q109 208 109 123Q109 91 128 71T179 51Q219 51 246 74T290 132T319 208T338 288ZM104 431Q116 445 129 458T161 483T205 500T266 507Q350 507 396 476T442 389Q442 379 441 370T437 351L375 103Q372 91 372 81Q372 60 387 55T425 51L410 -8Q393 -12 383 -14T364 -16Q286 -16 285 58Q264 37 248 24T216 2T185 -10T153 -14Q95 -14 61 22T26 120Q26 169 50 212T114 279Q137 293 168 302T248 320Q270 323 284 325T309 331T330 338T354 349Q357 364 357 371Q357 402 335 419T272 437Q237 437 211 426T160 388L104 431ZM165 570Q173 600 181 621T202 655Q223 680 263 680Q272 680 279 679T296 676T317 668T346 656Q370 645 381 642T401 638Q426 638 436 676H495Q490 628 464 599T398 570Q387 570 377 572T350 582L322 594L303 601Q284 609 279 610T266 611Q233 611 226 570H165Z"  />
<glyph unicode="&#xE4;" horiz-adv-x="478" d="M338 288Q324 283 315 280T296 273T277 268T251 262Q240 260 234 259T222 256T212 253T199 248Q109 208 109 123Q109 91 128 71T179 51Q219 51 246 74T290 132T319 208T338 288ZM104 431Q116 445 129 458T161 483T205 500T266 507Q350 507 396 476T442 389Q442 379 441 370T437 351L375 103Q372 91 372 81Q372 60 387 55T425 51L410 -8Q393 -12 383 -14T364 -16Q286 -16 285 58Q264 37 248 24T216 2T185 -10T153 -14Q95 -14 61 22T26 120Q26 169 50 212T114 279Q137 293 168 302T248 320Q270 323 284 325T309 331T330 338T354 349Q357 364 357 371Q357 402 335 419T272 437Q237 437 211 426T160 388L104 431ZM183 573L204 673H296L275 573H183ZM363 573L384 673H476L455 573H363Z"  />
<glyph unicode="&#xE5;" horiz-adv-x="478" d="M338 288Q324 283 315 280T296 273T277 268T251 262Q240 260 234 259T222 256T212 253T199 248Q109 208 109 123Q109 91 128 71T179 51Q219 51 246 74T290 132T319 208T338 288ZM104 431Q116 445 129 458T161 483T205 500T266 507Q350 507 396 476T442 389Q442 379 441 370T437 351L375 103Q372 91 372 81Q372 60 387 55T425 51L410 -8Q393 -12 383 -14T364 -16Q286 -16 285 58Q264 37 248 24T216 2T185 -10T153 -14Q95 -14 61 22T26 120Q26 169 50 212T114 279Q137 293 168 302T248 320Q270 323 284 325T309 331T330 338T354 349Q357 364 357 371Q357 402 335 419T272 437Q237 437 211 426T160 388L104 431ZM251 618Q251 655 276 681T340 707Q377 707 403 681T429 618Q429 581 403 555T340 529Q303 529 277 555T251 618ZM287 618Q287 596 302 581T340 565Q362 565 377 580T392 618Q392 640 377 655T340 670Q318 670 303 655T287 618Z"  />
<glyph unicode="&#xE6;" horiz-adv-x="802" d="M686 288Q692 322 692 339Q692 388 666 414T591 441Q559 441 530 426T477 384Q469 374 463 365T452 345T441 321T430 288H686ZM106 124Q106 92 125 72T176 51Q222 51 251 72T299 127T329 204T350 292Q338 286 329 283T311 277T291 272T263 266Q245 263 219 256T167 234T124 192T106 124ZM101 430Q111 442 124 455T156 481T203 500T270 508Q303 508 328 505T372 494T407 474T437 442Q483 477 520 492T602 507Q684 507 726 465T769 340Q769 326 768 313T766 287T761 257T753 221H413Q410 200 412 181Q417 119 444 87T531 54Q570 54 600 71T662 124L718 82Q704 66 687 49T647 18T595 -5T528 -14Q482 -14 450 -3T395 26T360 66T338 112Q330 100 316 79T280 37T225 1T151 -14Q93 -14 58 22T23 119Q23 156 37 190T77 251Q95 269 115 280T156 299T201 310T250 318Q274 321 290 324T320 330T343 339T366 351Q367 358 367 363T368 372Q368 404 345 420T279 437Q239 437 213 427T156 389L101 430Z"  />
<glyph unicode="&#xE7;" horiz-adv-x="479" d="M27 184Q27 232 43 288T93 393T175 473T291 506Q428 506 452 365L386 341Q366 437 283 437Q249 437 218 416T164 360T126 279T112 181Q112 121 141 88T220 54Q281 54 331 120L392 80Q383 68 369 52T333 21T281 -4T211 -15Q207 -15 205 -14L197 -44Q239 -50 262 -72T285 -127Q285 -169 242 -191T118 -213Q97 -213 74 -212T35 -208L46 -153Q63 -154 77 -154T115 -154Q142 -154 158 -151T184 -143T197 -132T200 -120Q200 -100 180 -90T121 -78L141 -2Q87 17 57 65T27 184Z"  />
<glyph unicode="&#xE8;" horiz-adv-x="479" d="M364 287Q370 320 370 337Q370 385 347 412T281 439Q270 439 252 436T213 417T171 372T134 287H364ZM396 80Q385 67 369 51T330 20T277 -5T207 -15Q122 -15 77 34T32 177Q32 249 51 309T105 414T188 482T294 507Q328 507 356 495T405 461T437 407T448 337Q448 311 445 287T432 220H117Q115 212 114 201T113 174Q113 120 141 87T216 53Q280 53 340 122L396 80ZM293 555L198 689H305L362 555H293Z"  />
<glyph unicode="&#xE9;" horiz-adv-x="479" d="M364 287Q370 320 370 337Q370 385 347 412T281 439Q270 439 252 436T213 417T171 372T134 287H364ZM396 80Q385 67 369 51T330 20T277 -5T207 -15Q122 -15 77 34T32 177Q32 249 51 309T105 414T188 482T294 507Q328 507 356 495T405 461T437 407T448 337Q448 311 445 287T432 220H117Q115 212 114 201T113 174Q113 120 141 87T216 53Q280 53 340 122L396 80ZM238 555L329 689H441L311 555H238Z"  />
<glyph unicode="&#xEA;" horiz-adv-x="479" d="M364 287Q370 320 370 337Q370 385 347 412T281 439Q270 439 252 436T213 417T171 372T134 287H364ZM396 80Q385 67 369 51T330 20T277 -5T207 -15Q122 -15 77 34T32 177Q32 249 51 309T105 414T188 482T294 507Q328 507 356 495T405 461T437 407T448 337Q448 311 445 287T432 220H117Q115 212 114 201T113 174Q113 120 141 87T216 53Q280 53 340 122L396 80ZM166 555L296 689H393L454 555H376L337 642L257 555H166Z"  />
<glyph unicode="&#xEB;" horiz-adv-x="479" d="M364 287Q370 320 370 337Q370 385 347 412T281 439Q270 439 252 436T213 417T171 372T134 287H364ZM396 80Q385 67 369 51T330 20T277 -5T207 -15Q122 -15 77 34T32 177Q32 249 51 309T105 414T188 482T294 507Q328 507 356 495T405 461T437 407T448 337Q448 311 445 287T432 220H117Q115 212 114 201T113 174Q113 120 141 87T216 53Q280 53 340 122L396 80ZM183 573L204 673H296L275 573H183ZM363 573L384 673H476L455 573H363Z"  />
<glyph unicode="&#xEC;" horiz-adv-x="271" d="M156 494H238L116 0H33L156 494ZM169 555L74 689H181L238 555H169Z"  />
<glyph unicode="&#xED;" horiz-adv-x="271" d="M156 494H238L116 0H33L156 494ZM164 555L255 689H367L237 555H164Z"  />
<glyph unicode="&#xEE;" horiz-adv-x="271" d="M156 494H238L116 0H33L156 494ZM62 555L192 689H289L350 555H272L233 642L153 555H62Z"  />
<glyph unicode="&#xEF;" horiz-adv-x="271" d="M156 494H238L116 0H33L156 494ZM79 573L100 673H192L171 573H79ZM259 573L280 673H372L351 573H259Z"  />
<glyph unicode="&#xF0;" horiz-adv-x="531" d="M231 54Q268 54 302 75T362 133T403 218T418 319Q418 373 389 406T311 439Q271 439 236 420T174 367T132 290T116 196Q116 132 147 93T231 54ZM264 737Q305 721 332 705T388 663L504 702L522 647L434 618Q454 593 468 561T492 496T505 431T510 375Q510 289 489 218T431 95T342 15T232 -14Q138 -14 84 43T30 200Q30 262 52 318T114 416T204 483T312 508Q343 508 365 500T414 472Q406 506 393 535T359 591L221 545L203 599L312 636Q300 645 291 652T272 664T251 674T227 684L264 737Z"  />
<glyph unicode="&#xF1;" horiz-adv-x="593" d="M226 410Q240 425 257 441T293 470T336 492T388 501Q417 501 441 491T482 464T510 423T520 371Q520 349 514 328L435 0H354L430 318Q433 328 434 337T435 356Q435 394 413 414T348 435Q294 435 253 394T194 281L125 0H43L166 494H246L226 410ZM222 570Q230 600 238 621T259 655Q280 680 320 680Q329 680 336 679T353 676T374 668T403 656Q427 645 438 642T458 638Q483 638 493 676H552Q547 628 521 599T455 570Q444 570 434 572T407 582L379 594L360 601Q341 609 336 610T323 611Q290 611 283 570H222Z"  />
<glyph unicode="&#xF2;" horiz-adv-x="531" d="M230 -14Q131 -14 76 39T21 190Q21 257 43 314T103 414T194 481T308 505Q403 505 457 450T510 295Q510 230 488 174T429 76T340 10T230 -14ZM226 51Q268 51 304 70T367 123T409 202T424 302Q424 363 392 400T305 438Q263 438 227 419T164 367T122 288T107 188Q107 125 139 88T226 51ZM319 555L224 689H331L388 555H319Z"  />
<glyph unicode="&#xF3;" horiz-adv-x="531" d="M230 -14Q131 -14 76 39T21 190Q21 257 43 314T103 414T194 481T308 505Q403 505 457 450T510 295Q510 230 488 174T429 76T340 10T230 -14ZM226 51Q268 51 304 70T367 123T409 202T424 302Q424 363 392 400T305 438Q263 438 227 419T164 367T122 288T107 188Q107 125 139 88T226 51ZM264 555L355 689H467L337 555H264Z"  />
<glyph unicode="&#xF4;" horiz-adv-x="531" d="M230 -14Q131 -14 76 39T21 190Q21 257 43 314T103 414T194 481T308 505Q403 505 457 450T510 295Q510 230 488 174T429 76T340 10T230 -14ZM226 51Q268 51 304 70T367 123T409 202T424 302Q424 363 392 400T305 438Q263 438 227 419T164 367T122 288T107 188Q107 125 139 88T226 51ZM192 555L322 689H419L480 555H402L363 642L283 555H192Z"  />
<glyph unicode="&#xF5;" horiz-adv-x="531" d="M230 -14Q131 -14 76 39T21 190Q21 257 43 314T103 414T194 481T308 505Q403 505 457 450T510 295Q510 230 488 174T429 76T340 10T230 -14ZM226 51Q268 51 304 70T367 123T409 202T424 302Q424 363 392 400T305 438Q263 438 227 419T164 367T122 288T107 188Q107 125 139 88T226 51ZM201 570Q209 600 217 621T238 655Q259 680 299 680Q308 680 315 679T332 676T353 668T382 656Q406 645 417 642T437 638Q462 638 472 676H531Q526 628 500 599T434 570Q423 570 413 572T386 582L358 594L339 601Q320 609 315 610T302 611Q269 611 262 570H201Z"  />
<glyph unicode="&#xF6;" horiz-adv-x="531" d="M230 -14Q131 -14 76 39T21 190Q21 257 43 314T103 414T194 481T308 505Q403 505 457 450T510 295Q510 230 488 174T429 76T340 10T230 -14ZM226 51Q268 51 304 70T367 123T409 202T424 302Q424 363 392 400T305 438Q263 438 227 419T164 367T122 288T107 188Q107 125 139 88T226 51ZM209 573L230 673H322L301 573H209ZM389 573L410 673H502L481 573H389Z"  />
<glyph unicode="&#xF7;" horiz-adv-x="668" d="M284 531Q284 550 298 563T332 577Q352 577 366 563T380 529Q380 509 367 495T333 481Q313 481 299 495T284 531ZM284 122Q284 142 298 156T333 170Q353 170 367 157T381 123Q381 103 367 89T333 74Q313 74 299 88T284 122ZM66 364H602V287H66V364Z"  />
<glyph unicode="&#xF8;" horiz-adv-x="531" d="M463 524L505 487L462 438Q507 384 507 295Q507 230 485 174T426 76T337 10T227 -14Q151 -14 101 19L60 -29L17 9L59 58Q18 108 18 190Q18 257 40 314T100 414T191 481T305 505Q374 505 421 475L463 524ZM150 75Q180 51 223 51Q265 51 301 70T364 123T406 202T421 302Q421 343 406 373L150 75ZM370 417Q341 438 302 438Q260 438 224 419T161 367T119 288T104 188Q104 151 116 123L370 417Z"  />
<glyph unicode="&#xF9;" horiz-adv-x="593" d="M158 494H239L167 207Q162 188 160 171T157 142Q157 104 180 82T244 60Q299 60 338 97T395 202L468 494H550L427 0H345L364 79Q353 67 337 52T301 25T256 3T200 -6Q143 -6 108 30T73 127Q73 144 77 167T87 217L158 494ZM350 555L255 689H362L419 555H350Z"  />
<glyph unicode="&#xFA;" horiz-adv-x="593" d="M158 494H239L167 207Q162 188 160 171T157 142Q157 104 180 82T244 60Q299 60 338 97T395 202L468 494H550L427 0H345L364 79Q353 67 337 52T301 25T256 3T200 -6Q143 -6 108 30T73 127Q73 144 77 167T87 217L158 494ZM295 555L386 689H498L368 555H295Z"  />
<glyph unicode="&#xFB;" horiz-adv-x="593" d="M158 494H239L167 207Q162 188 160 171T157 142Q157 104 180 82T244 60Q299 60 338 97T395 202L468 494H550L427 0H345L364 79Q353 67 337 52T301 25T256 3T200 -6Q143 -6 108 30T73 127Q73 144 77 167T87 217L158 494ZM223 555L353 689H450L511 555H433L394 642L314 555H223Z"  />
<glyph unicode="&#xFC;" horiz-adv-x="593" d="M158 494H239L167 207Q162 188 160 171T157 142Q157 104 180 82T244 60Q299 60 338 97T395 202L468 494H550L427 0H345L364 79Q353 67 337 52T301 25T256 3T200 -6Q143 -6 108 30T73 127Q73 144 77 167T87 217L158 494ZM240 573L261 673H353L332 573H240ZM420 573L441 673H533L512 573H420Z"  />
<glyph unicode="&#xFD;" horiz-adv-x="479" d="M98 494H169L210 115L399 494H479L206 -52Q189 -85 175 -111T141 -155T95 -182T27 -191Q11 -191 -2 -190T-40 -186L-21 -121Q6 -124 20 -124Q47 -124 64 -118T95 -98T121 -61T150 -4L98 494ZM238 555L329 689H441L311 555H238Z"  />
<glyph unicode="&#xFE;" horiz-adv-x="531" d="M312 437Q280 437 256 419T213 374T182 313T161 249T150 193T146 157Q146 110 171 82T236 53Q266 53 290 67T333 105T365 157T387 216T400 274T404 322Q404 375 379 406T312 437ZM204 417Q240 465 271 484T343 503Q375 503 402 490T448 452T477 393T488 317Q488 251 469 191T419 86T345 13T256 -14Q199 -14 169 12T124 92L55 -192H-28L197 721H280L204 417Z"  />
<glyph unicode="&#xFF;" horiz-adv-x="479" d="M98 494H169L210 115L399 494H479L206 -52Q189 -85 175 -111T141 -155T95 -182T27 -191Q11 -191 -2 -190T-40 -186L-21 -121Q6 -124 20 -124Q47 -124 64 -118T95 -98T121 -61T150 -4L98 494ZM183 573L204 673H296L275 573H183ZM363 573L384 673H476L455 573H363Z"  />
<glyph unicode="&#x152;" horiz-adv-x="958" d="M559 634Q533 636 512 637T471 639Q407 639 357 622T270 578T208 515T166 442T143 370T136 306Q136 198 192 140T351 81Q366 81 384 82T421 85L559 634ZM972 721L951 634H655L600 413H882L861 326H579L519 87H899L878 0H335Q265 -2 209 18T114 77T53 168T31 287Q31 307 35 339T49 410T78 489T126 569T195 641T292 695Q331 710 371 715T471 721H972Z"  />
<glyph unicode="&#x153;" horiz-adv-x="802" d="M688 288Q692 305 693 316T694 337Q694 384 675 411T621 438Q589 438 567 422T528 382T503 332T487 288H688ZM298 440Q259 440 225 420T164 365T123 284T108 187Q108 126 138 90T219 54Q263 54 303 83T367 160Q374 175 381 195T394 238T402 280T406 316Q406 343 398 365T376 404T342 430T298 440ZM721 81Q695 51 670 32T621 3T577 -11T539 -15Q493 -15 462 5T404 74Q387 59 368 43T326 15T276 -6T216 -15Q172 -15 136 0T75 42T35 107T21 192Q21 255 44 311T106 411T196 480T304 506Q341 506 367 497T410 474T439 445T458 417Q471 431 487 446T523 475T569 497T628 506Q694 506 733 462T772 342Q772 284 757 221H469Q467 205 467 196T466 176Q466 121 489 89T554 57Q581 57 606 72T664 122L721 81Z"  />
<glyph unicode="&#x160;" horiz-adv-x="594" d="M96 213Q98 172 106 148T135 103Q175 63 256 63Q322 63 362 100T403 199Q403 219 397 237T377 273T339 310T282 352Q255 370 231 389T187 431T157 485T145 554Q145 594 161 628T205 686T273 724T360 738Q475 738 535 664Q546 650 552 636T567 597L493 541Q487 595 450 624T351 654Q298 654 265 626T232 553Q232 523 255 497T334 434Q363 416 391 395T443 345T480 283T494 205Q494 153 476 111T424 38T344 -8T240 -25Q141 -25 78 26Q65 37 56 48T39 73T25 105T12 148L96 213ZM541 916L412 782H314L254 916H331L368 829L449 916H541Z"  />
<glyph unicode="&#x161;" horiz-adv-x="479" d="M78 153Q86 132 95 114T120 82T158 60T218 52Q271 52 299 71T328 124Q328 152 307 171T233 210Q213 217 189 227T144 254T109 295T94 356Q94 388 107 415T145 463T201 494T273 506Q317 506 348 493T399 463T431 427T448 397L381 363Q355 404 327 421T260 439Q223 439 198 418T172 366Q172 338 192 320T267 284Q282 279 306 269T354 242T395 198T412 135Q412 65 359 25T215 -16Q159 -16 124 -6T67 24T33 68T11 124L78 153ZM493 689L364 555H266L206 689H283L320 602L401 689H493Z"  />
<glyph unicode="&#x178;" horiz-adv-x="646" d="M157 721H252L341 439L559 721H674L375 334L294 0H196L278 335L157 721ZM267 800L288 900H380L359 800H267ZM447 800L468 900H560L539 800H447Z"  />
<glyph unicode="&#x17D;" horiz-adv-x="646" d="M201 721H657L645 674L171 85H507L487 0H13L25 50L497 636H180L201 721ZM587 916L458 782H360L300 916H377L414 829L495 916H587Z"  />
<glyph unicode="&#x17E;" horiz-adv-x="479" d="M120 494H455L441 435L140 70H377L360 0H5L16 47L327 424H103L120 494ZM483 689L354 555H256L196 689H273L310 602L391 689H483Z"  />
<glyph unicode="&#x192;" horiz-adv-x="323" d="M148 494L178 618Q193 681 235 710T350 739Q361 739 380 738T421 735L402 659Q387 661 375 661T354 662Q270 662 254 590L230 494H316L299 428H215L85 -137H2L133 428H40L58 494H148Z"  />
<glyph unicode="&#x2C6;" horiz-adv-x="333" d="M93 555L223 689H320L381 555H303L264 642L184 555H93Z"  />
<glyph unicode="&#x2DC;" horiz-adv-x="333" d="M112 570Q120 600 128 621T149 655Q170 680 210 680Q219 680 226 679T243 676T264 668T293 656Q317 645 328 642T348 638Q373 638 383 676H442Q437 628 411 599T345 570Q334 570 324 572T297 582L269 594L250 601Q231 609 226 610T213 611Q180 611 173 570H112Z"  />
<glyph unicode="&#x2013;" horiz-adv-x="500" d="M-5 294H504V206H-5V294Z"  />
<glyph unicode="&#x2014;" horiz-adv-x="1000" d="M-5 294H1004V205H-5V294Z"  />
<glyph unicode="&#x2018;" horiz-adv-x="271" d="M164 604Q178 664 204 691T276 721L262 667Q251 662 243 655T229 638T218 613T208 576H240L208 450H126L164 604Z"  />
<glyph unicode="&#x2019;" horiz-adv-x="271" d="M193 721H276L236 560Q222 504 197 479T126 450L140 506Q152 512 160 518T173 535T183 559T193 595H162L193 721Z"  />
<glyph unicode="&#x201A;" horiz-adv-x="271" d="M60 127H143L104 -29Q96 -61 87 -82T66 -116T36 -135T-6 -143L8 -90Q18 -86 25 -80T39 -63T50 -38T61 0H29L60 127Z"  />
<glyph unicode="&#x201C;" horiz-adv-x="479" d="M365 604Q380 664 406 691T478 721L464 667Q453 662 445 655T431 638T420 613T409 576H442L410 450H328L365 604ZM159 604Q173 664 199 691T271 721L258 667Q247 662 239 655T225 638T214 613T203 576H235L204 450H121L159 604Z"  />
<glyph unicode="&#x201D;" horiz-adv-x="479" d="M398 721H478L442 568Q434 535 426 514T405 478T377 458T336 448L349 504Q372 515 382 534T400 595H369L398 721ZM191 721H272L237 567Q229 535 221 514T200 479T172 458T131 448L144 506Q156 511 164 517T177 534T187 559T194 596H163L191 721Z"  />
<glyph unicode="&#x201E;" horiz-adv-x="479" d="M67 127H150L111 -29Q103 -61 94 -82T73 -116T43 -135T1 -143L15 -90Q26 -86 33 -80T47 -63T58 -38T69 0H37L67 127ZM274 127H357L318 -29Q310 -61 301 -82T280 -116T250 -135T208 -143L222 -90Q233 -86 240 -80T254 -63T265 -38T276 0H244L274 127Z"  />
<glyph unicode="&#x2020;" horiz-adv-x="531" d="M321 721H405L328 474L510 488L490 406L315 421L197 -164H96L265 422L82 406L101 487L277 473L321 721Z"  />
<glyph unicode="&#x2021;" horiz-adv-x="531" d="M113 -170L185 59L14 44L34 124L196 112L226 278L274 438L105 424L127 504L287 490L330 721H412L338 490L507 504L487 424L324 440L297 280L246 112L416 127L397 47L234 58L193 -170H113Z"  />
<glyph unicode="&#x2022;" horiz-adv-x="350" d="M61 350Q61 376 71 398T97 438T136 464T185 474Q210 474 233 465T272 438T299 399T309 350Q309 324 299 302T273 263T233 237T185 227Q159 227 137 236T98 263T71 302T61 350Z"  />
<glyph unicode="&#x2026;" horiz-adv-x="854" d="M64 126H147L116 0H34L64 126ZM636 126H719L688 0H606L636 126ZM350 126H433L402 0H320L350 126Z"  />
<glyph unicode="&#x2030;" horiz-adv-x="1042" d="M168 358Q122 358 95 392T67 483Q67 493 70 515T80 567T98 626T128 682T172 723T232 740Q279 740 306 707T334 621Q334 609 331 586T321 533T301 472T271 416T227 375T168 358ZM231 687Q216 687 203 674T179 641T160 597T147 549T138 506T135 478Q135 445 145 430T174 414Q190 414 203 428T227 463T245 511T257 560T264 602T267 626Q267 655 257 671T231 687ZM496 -37Q450 -37 423 -3T395 88Q395 98 398 120T408 172T426 231T456 287T500 328T560 345Q607 345 634 312T662 226Q662 215 659 191T649 138T629 77T599 21T555 -20T496 -37ZM559 292Q543 292 530 279T507 246T488 202T475 154T466 111T463 83Q463 50 473 35T502 19Q518 19 531 33T555 68T573 116T585 165T592 207T595 231Q595 260 585 276T559 292ZM822 -37Q776 -37 749 -3T721 88Q721 98 724 120T734 172T752 231T782 287T826 328T886 345Q933 345 960 312T988 226Q988 215 985 191T975 138T955 77T925 21T881 -20T822 -37ZM885 292Q869 292 856 279T833 246T814 202T801 154T792 111T789 83Q789 50 799 35T828 19Q844 19 857 33T881 68T899 116T911 165T918 207T921 231Q921 260 911 276T885 292ZM599 738H656L94 -37H36L599 738Z"  />
<glyph unicode="&#x2039;" horiz-adv-x="292" d="M198 518H285L106 269L183 40H109L28 281L198 518Z"  />
<glyph unicode="&#x203A;" horiz-adv-x="292" d="M89 517H163L244 278L74 40H-11L165 290L89 517Z"  />
<glyph unicode="&#x20AC;" horiz-adv-x="581" d="M478 248H184Q184 205 191 170T211 110T246 70T297 56Q325 56 348 67T391 96T424 133T449 169L502 124Q490 105 473 81T431 36T373 1T295 -14Q250 -14 214 4T152 57T112 139T96 248H25L41 310H99Q101 325 102 340T107 370H45L60 432H122Q137 483 159 530T213 613T285 671T375 693Q418 693 449 680T501 649T537 609T561 572L504 527Q483 572 453 598T375 624Q342 624 315 608T268 566T232 505T207 432H523L507 370H194Q192 355 190 340T186 310H495L478 248Z"  />
<glyph unicode="&#x2122;" horiz-adv-x="1000" d="M248 323V662H119V721H444V662H314V323H248ZM489 323V721H587L687 403L784 721H880V323H819V657L717 323H657L550 662V323H489Z"  />

</font>
</defs>
</svg>
